<svg xmlns="http://www.w3.org/2000/svg" xmlns:xlink="http://www.w3.org/1999/xlink" width="600" height="600" viewBox="0 0 600 600"><defs><clipPath id="a"><circle cx="300" cy="300" r="300" fill="none"/></clipPath></defs><g clip-path="url(#a)"><rect x="-168.75" width="937.5" height="150" fill="#032ea1"/><rect x="-168.75" y="450" width="937.5" height="150" fill="#032ea1"/><rect x="-168.75" y="150" width="937.5" height="300" fill="#e00025"/><path d="M215.49,282.79h170.7v65.68H215.49Z" fill="#fff"/><path d="M386.19,349.19H215.49l-.72-.72V282.79l.72-.72h170.7l.73.72v65.68Zm-170-1.44H385.47V283.51H216.21Z"/><path d="M377.39,319.06h5.38V343.8h-5.38Zm-161.9-12.23h170.7v7.64H215.49Zm0-10.35h170.7v6.74H215.49Z" fill="#fff"/><path d="M382.77,344.52h-5.38l-.72-.72V319.06l.72-.72h5.38l.72.72V343.8Zm-4.66-1.44h3.94v-23.3h-3.94Zm8.08-27.89H215.49l-.72-.72v-7.64l.72-.72h170.7l.73.72v7.64Zm-170-1.44H385.47v-6.2H216.21Zm170-9.81H215.49l-.72-.72v-6.74l.72-.72h170.7l.73.72v6.74Zm-170-1.44H385.47v-5.3H216.21Z"/><path d="M215.49,286.15h170.7v6.53H215.49Z" fill="#fff"/><path d="M386.19,293.39H215.49l-.7-.71v-6.53l.7-.71h170.7l.71.71v6.53ZM216.2,292H385.49v-5.11H216.2Z"/><path d="M260.43,319.06h5.38V343.8h-5.38Zm73.49,0h5.38V343.8h-5.38Zm-117.08,0h5.38V343.8h-5.38Zm10.55,0h5.38V343.8h-5.38Zm11.25,0H244V343.8h-5.38Zm11.25,0h5.38V343.8h-5.38Zm94.23,0h5.38V343.8h-5.38Zm11.25,0h5.38V343.8h-5.38Zm11.25,0H372V343.8h-5.38Z" fill="#fff"/><path d="M372,344.52h-5.38l-.72-.72V319.06l.72-.72H372l.72.72V343.8Zm-4.66-1.44h3.94v-23.3h-3.94Zm-6.59,1.44h-5.38l-.72-.72V319.06l.72-.72h5.38l.72.72V343.8Zm-4.66-1.44H360v-23.3h-3.94Zm-6.59,1.44h-5.38l-.72-.72V319.06l.72-.72h5.38l.72.72V343.8Zm-4.66-1.44h3.94v-23.3h-3.94Zm-5.54,1.44h-5.38l-.72-.72V319.06l.72-.72h5.38l.72.72V343.8Zm-4.66-1.44h3.94v-23.3h-3.94Zm-68.83,1.44h-5.38l-.72-.72V319.06l.72-.72h5.38l.72.72V343.8Zm-4.66-1.44h3.94v-23.3h-3.94Zm-5.88,1.44h-5.38l-.72-.72V319.06l.72-.72h5.38l.72.72V343.8Zm-4.66-1.44h3.94v-23.3h-3.94ZM244,344.52h-5.38l-.72-.72V319.06l.72-.72H244l.72.72V343.8Zm-4.66-1.44h3.94v-23.3h-3.94Zm-6.59,1.44h-5.38l-.72-.72V319.06l.72-.72h5.38l.72.72V343.8Zm-4.66-1.44h3.94v-23.3h-3.94Zm-5.89,1.44h-5.38l-.72-.72V319.06l.72-.72h5.38l.72.72V343.8Zm-4.66-1.44h3.94v-23.3h-3.94Z"/><path d="M148.73,351.92a14,14,0,0,0,6.64-8H445a14,14,0,0,0,6.64,8Z" fill="#fff"/><path d="M451.61,352.65H148.73l-.33-1.37a13.33,13.33,0,0,0,6.27-7.53l.15-.53h290.7l.14.53a13.42,13.42,0,0,0,6.28,7.53ZM151.14,351.2H449.2a14.7,14.7,0,0,1-4.76-6.54H155.9A14.72,14.72,0,0,1,151.14,351.2Z"/><path d="M296.46,182.8s-.21-6.17,3.38-6.24,3.37,6.24,3.37,6.24Zm-18.73,81.81v-8.3c-.12-4.16-4.14-4.46-4.26-7.48,0,0-.52-4.54.68-6.62,1.63,6.07,4.58,5,4.58,2.46,0-2.18-1.67-4.2-5.11-9.49-1.1-1.69-.42-7,1.12-8.89.6,4.61,1.28,6.81,3.26,6.81,1.21,0,2.19-.78,2.19-3.09,0-2.93-2-4.42-3-7.09a7.55,7.55,0,0,1,1.53-8.07c.82,4.55.57,6.36,2.59,6.36,4.07-1.29,0-7.18-.87-8.67-1-1.73,1.35-5.19,1.35-5.19,1.29,4,1.71,4.37,3.11,4,1.76-.47,1.53-3.08-.62-5.19-1.36-1.34-1.21-3.32.24-4.91,1.47,2.86,3.34,2.68,3.52,1l-1.18-6.59h25.89L311.5,202c-.37,1.83,2.1,2.22,3.63-.77,1.45,1.59,1.6,3.58.24,4.91-2.15,2.11-2.38,4.72-.61,5.2,1.39.37,1.81,0,3.1-4a6.15,6.15,0,0,1,1.35,5.19c-.87,1.48-4.94,7.38-.87,8.66,2,0,1.77-1.81,2.58-6.35a7.53,7.53,0,0,1,1.54,8.07c-1,2.67-3,4.15-3,7.08,0,2.31,1,3.1,2.19,3.1,2,0,2.66-2.21,3.26-6.81,1.54,1.89,2.22,7.19,1.12,8.88-3.44,5.29-5.11,7.31-5.11,9.49,0,2.5,3,3.61,4.58-2.46,1.2,2.07.68,6.62.68,6.62-.12,3-4.14,3.32-4.26,7.48v8.3Zm10.83-69-.6-4.69h23.76l-.59,4.69Zm1.59-4.79-.51-3.85H310l-.51,3.85Zm3.24-4-.34-3.85h13.59l-.34,3.85Zm49.53,165.12c-3-1.17-7.47-4.38-7.47-7.6V307.87l4-5H260.25l3.79,5v36.44c0,3.23-3,6.44-6.08,7.61Z" fill="#fff"/><path d="M258,352.65l-.25-1.4c2.7-1,5.61-4,5.61-6.93v-36.2l-4.52-6h82.09l-4.72,6v36.2c0,2.76,4.07,5.8,7,6.93l-.26,1.4Zm3.73-49.09,3.07,4.08v36.68c0,2.66-1.81,5.23-4.05,6.89h79.21c-2.65-1.67-5.19-4.23-5.19-6.89v-36.7l3.2-4.06Zm61-38.23H277v-9c-.06-1.93-1.07-2.87-2.15-3.87s-2-1.9-2.11-3.59c0-.14-.52-4.74.78-7l.87-1.5.45,1.68c.87,3.24,2,4,2.49,3.92s.67-.6.67-1.28c0-1.55-1.09-3.19-3.26-6.47L273,235.57c-1.26-1.94-.59-7.58,1.16-9.73l1.06-1.3.22,1.66c.59,4.62,1.24,6.18,2.54,6.18.36,0,1.47,0,1.47-2.37A7.4,7.4,0,0,0,278,226a15.39,15.39,0,0,1-1.43-2.78,8.28,8.28,0,0,1,1.72-8.84l1-.91.23,1.31c.17.93.29,1.74.4,2.45.42,2.84.58,3.28,1.37,3.31a1.61,1.61,0,0,0,1.06-.93c.62-1.67-1.32-4.82-2.14-6.17l-.3-.48c-1.19-2.07,1.11-5.57,1.37-6l.83-1.22.46,1.4c1.21,3.79,1.45,3.73,2.23,3.52a.8.8,0,0,0,.6-.6c.19-.72-.21-2.09-1.53-3.39-1.61-1.58-1.52-4,.21-5.91l.7-.76.48.92c.74,1.45,1.5,1.89,1.83,1.82.17,0,.27-.26.31-.49L286,194.92h1.71l-.6-4.75h2.19l-.52-3.95h3.79l-.35-4h3.49c0-1.19.28-3.85,1.67-5.33a3.29,3.29,0,0,1,4.84,0c1.39,1.48,1.64,4.14,1.67,5.33h3.49l-.35,4h3.8l-.53,3.95h2.2l-.6,4.75h1.73l-1.46,7.23c0,.17-.06.47.15.54.42.15,1.38-.32,2.12-1.78L315,200l.7.76c1.73,1.9,1.82,4.33.22,5.91-1.33,1.3-1.72,2.67-1.53,3.39a.77.77,0,0,0,.59.6c.79.21,1,.27,2.24-3.51l.38-1.2.84.94a6.82,6.82,0,0,1,1.5,5.85l-.07.18-.29.48c-.76,1.23-2.77,4.5-2.15,6.17a1.61,1.61,0,0,0,1.06.93c.79,0,.95-.47,1.37-3.31.11-.71.23-1.52.4-2.45l.23-1.31,1,.91a8.28,8.28,0,0,1,1.72,8.84A14.59,14.59,0,0,1,321.7,226a7.44,7.44,0,0,0-1.48,4c0,2.38,1.11,2.38,1.47,2.38,1.31,0,1.95-1.56,2.55-6.19l.21-1.66,1.06,1.3c1.75,2.16,2.42,7.79,1.16,9.73-.64,1-1.22,1.87-1.74,2.65-2.17,3.26-3.25,4.9-3.25,6.45,0,.68.29,1.23.67,1.28s1.63-.68,2.5-3.92l.45-1.68.87,1.5c1.29,2.25.78,6.86.76,7.06-.06,1.63-1.1,2.59-2.1,3.53s-2.1,1.94-2.15,3.89Zm-44.23-1.44h42.79v-7.58a6.53,6.53,0,0,1,2.61-4.93c.9-.83,1.6-1.49,1.65-2.58a20.4,20.4,0,0,0,0-4.23c-1.22,2.72-2.67,2.9-3.33,2.81a2.5,2.5,0,0,1-1.92-2.71c0-2,1.16-3.74,3.49-7.25.52-.78,1.09-1.65,1.73-2.63s.54-3.91-.14-6.1c-.53,3-1.38,5.14-3.63,5.14-.87,0-2.91-.38-2.91-3.82a8.74,8.74,0,0,1,1.7-4.81,14.94,14.94,0,0,0,1.31-2.52,7.24,7.24,0,0,0-.42-6.12q-.06.44-.12.84c-.43,2.82-.68,4.53-2.91,4.53l-.22,0a3.05,3.05,0,0,1-2.08-1.84c-.86-2.32,1.25-5.77,2.27-7.42l.22-.38a4.79,4.79,0,0,0-.46-3.26c-.93,2.67-1.64,3.54-3.5,3a2.21,2.21,0,0,1-1.62-1.62c-.37-1.4.39-3.28,1.92-4.78a2.46,2.46,0,0,0,.31-3.12c-1.08,1.46-2.4,1.85-3.3,1.53a1.79,1.79,0,0,1-1.08-2.18l1.11-5.51H287.76l1.05,5.84v.1a1.94,1.94,0,0,1-1.49,1.84c-1,.18-2-.41-2.81-1.61a2.46,2.46,0,0,0,.33,3.11c1.53,1.5,2.28,3.38,1.91,4.78a2.21,2.21,0,0,1-1.62,1.62c-1.82.49-2.54-.35-3.46-2.93-.52,1.09-.94,2.4-.55,3.07l.27.46c1,1.65,3.13,5.1,2.27,7.42a3,3,0,0,1-2.08,1.84l-.22,0c-2.23,0-2.48-1.71-2.91-4.53,0-.27-.08-.55-.12-.85a7.26,7.26,0,0,0-.42,6.13,14.6,14.6,0,0,0,1.31,2.52,8.74,8.74,0,0,1,1.7,4.81c0,3.44-2,3.81-2.91,3.81-2.25,0-3.1-2.1-3.63-5.13-.67,2.19-.77,5.13-.14,6.1s1.21,1.84,1.72,2.62c2.33,3.51,3.5,5.27,3.5,7.26a2.5,2.5,0,0,1-1.92,2.71c-.66.09-2.12-.09-3.33-2.81a19.13,19.13,0,0,0,0,4.17c0,1.15.75,1.81,1.65,2.64a6.52,6.52,0,0,1,2.61,4.9Zm10.74-69h21.3l.41-3.25H288.78Zm1.59-4.79H308.9l.32-2.41H290.46Zm3.27-4h11.59l.21-2.41h-12Zm3.14-4h5.3c-.06-1.22-.35-3.2-1.28-4.19a1.84,1.84,0,0,0-2.74,0C297.53,178.88,297.25,180.86,297.19,182.08Z"/><path d="M274.32,319.06h5.38V343.8h-5.38Zm45.48,0h5.38V343.8H319.8Z" fill="#fff"/><path d="M325.18,344.52H319.8l-.72-.72V319.06l.72-.72h5.38l.72.72V343.8Zm-4.65-1.44h3.93v-23.3h-3.93Zm-40.83,1.44h-5.38l-.72-.72V319.06l.72-.72h5.38l.72.72V343.8ZM275,343.08H279v-23.3H275Z"/><path d="M258.83,261.35v41.49h81V293.9l.12-32.55a6.3,6.3,0,0,0-3.89,4.31v17.66H263V265.66a7,7,0,0,0-4.13-4.31Z" fill="#fff"/><path d="M340.58,303.56H258.11V260.3l1,.38a7.75,7.75,0,0,1,4.57,4.79l0,.19V282.6h71.69V265.66a6.93,6.93,0,0,1,4.35-5l1-.39Zm-81-1.44h79.59V293.9l.12-31.39a5.57,5.57,0,0,0-2.47,3.28l0,18.25H262.24V265.77a6.22,6.22,0,0,0-2.69-3.26Z"/><path d="M328.86,351.92c-2.64-1.17-8.41-4.38-8.41-7.6V303.53c.56-2.27,3.65-3.62,5.64-5H272.35c2.56,1.35,5.41,2.48,6.43,5v40.78c0,3.23-4.56,6.44-7.21,7.61Z" fill="#fff"/><path d="M271.57,352.65l-.29-1.38c2.74-1.21,6.78-4.25,6.78-6.95V303.68c-.81-1.88-2.83-2.91-5-4l-1.07-.56.33-1.35h56l-1.84,1.3c-.47.34-1,.67-1.55,1-1.66,1-3.38,2.1-3.78,3.53v40.69c0,2.51,4.77,5.53,8,6.95l-.3,1.38Zm3.73-53.43a8.39,8.39,0,0,1,4.15,4l.05.27v40.78c0,2.65-2.59,5.21-5.14,6.89h51.52c-2.62-1.51-6.15-4.07-6.15-6.89l0-41c.45-1.83,2.2-3.07,3.89-4.14Z"/><path d="M336.08,298.93V269.55h-7.37v-2.87H270.45v2.87h-7.36v29.38Zm-18.83,53c-2.59-1.17-6.37-4.38-6.37-7.6V309.5l2.13-3.17H286.48l2.13,3.17v34.82c0,3.23-3.78,6.44-6.38,7.61Z" fill="#fff"/><path d="M282.23,352.65l-.29-1.38c2.49-1.13,5.95-4.17,5.95-6.95v-34.6l-2.76-4.11h29.24l-2.77,4.11v34.6c0,2.78,3.46,5.82,5.95,6.95l-.3,1.38Zm5.6-45.6,1.5,2.23v35c0,2.66-2.19,5.22-4.48,6.89h29.78c-2.28-1.67-4.47-4.23-4.47-6.89v-35l1.5-2.23Zm49-7.4H262.37V268.83h7.36V266h59.7v2.87h7.37Zm-73-1.44h71.55V270.27H328V267.4H271.17v2.87h-7.36Z"/><path d="M293,306.34h13.45V351.9H293Z" fill="#fff"/><path d="M307.21,352.64H292.29v-47h14.92Zm-13.44-1.47h12v-44.1h-12Z"/><path d="M313.53,296.32c0-3,8.76-3.14,13.25-5.69H272.85c4.5,2.55,13,2.76,13,5.69l1.82,5.82L310,303Z" fill="#fff"/><path d="M310,303.76l-22.33-.9-.65-.5-1.86-6c0-1.18-3.1-2-5.83-2.7a29.11,29.11,0,0,1-6.82-2.37l.35-1.34h53.93l.36,1.34a28.86,28.86,0,0,1-6.92,2.36c-2.79.7-6,1.5-6,2.72l-.08.32-3.52,6.72Zm-21.76-2.32,21.36.86,3.23-6.18c.2-2.18,3.38-3,7.05-3.91,1.08-.27,2.17-.55,3.21-.86H276.5c1,.32,2.12.6,3.19.88,3.63.95,6.78,1.77,6.89,4Z"/><path d="M324.08,264.61c0-7.35.31-10.18,2.56-10.18V277.8c-5.53,2-9.48,9.08-9.48,9.08H282.34s-3.95-7.07-9.49-9.08V254.43c2.79,0,2.8,3,2.8,10.18Zm2.56-3c0-8.42,7.28-9.37,7.28-9.37v7.5c-2.77-.12-4.1,2.37-4.1,6.07s2.23,3.75,2.23,3.75v21.29h-5.4Z" fill="#fff"/><path d="M332.77,291.55h-6.84V278.89c-4.71,2.31-8.1,8.27-8.13,8.34l-.21.37H281.92l-.21-.37c0-.07-3.89-6.86-9.1-8.75l-.48-.18V253.71h.72c3.41,0,3.52,3.2,3.52,10.18h47c0-6.51.26-10.18,3.28-10.18h.72v2.15a9.79,9.79,0,0,1,6.47-4.36l.81-.1v9.07l-.75,0a2.49,2.49,0,0,0-2,.69c-.89.84-1.37,2.5-1.37,4.65,0,2.9,1.48,3,1.54,3l.67.05,0,.67Zm-5.41-1.44h4v-20c-.87-.34-2.24-1.33-2.24-4.32,0-2.59.63-4.56,1.82-5.69A3.86,3.86,0,0,1,333.2,259v-5.9c-1.78.51-5.84,2.36-5.84,8.47Zm-44.61-3.95h34c.89-1.48,4.38-6.85,9.18-8.85V255.4c-.86.73-1.12,3.2-1.12,9.21v.72H274.93v-.72c0-6.19-.07-8.74-1.36-9.32v22C278.38,279.31,281.87,284.68,282.75,286.16Z"/><path d="M272.88,261.59c0-8.42-7.27-9.37-7.27-9.37v7.5c2.77-.12,4.1,2.37,4.1,6.07s-2.23,3.75-2.23,3.75v21.29h5.4Z" fill="#fff"/><path d="M273.6,291.55h-6.84V268.84l.7,0c.05,0,1.53-.14,1.53-3,0-2.15-.48-3.81-1.37-4.65a2.59,2.59,0,0,0-2-.69l-.75,0V251.4l.81.1c.08,0,7.9,1.14,7.9,10.09Zm-5.4-1.44h4V261.59c0-6.14-4.05-8-5.83-8.48V259a3.86,3.86,0,0,1,2.29,1.07c1.19,1.13,1.81,3.1,1.81,5.69,0,3-1.36,4-2.23,4.32Z"/><path d="M322.57,247.34H276.93v-1.2h45.64Zm-.31-13.56H278v-1.2h44.31Zm-3.77-11.89H281.13v-1.2h37.36Zm-2.93-9.74H284.18V211h31.38Zm-2.64-8h-25.7v-1.2h25.7Z"/><path d="M314,301.66H285.53v-10H263.09v-1.44h73v1.44H314Zm-27-1.44h25.61v-8.51H287Z"/><path d="M282.86,269c4.48,5.38,4.07,14.52,4,19.9h26c-.05-5.38-.47-14.52,4-19.9Zm14.62-61.7-3.56-1.83v-5.25c1.46.44,3.09.62,3.25,2.94.51-3.32,1.42-3.15,2.86-4.44,1.44,1.28,2.35,1.12,2.86,4.44.16-2.32,1.8-2.5,3.26-2.94v5.25l-3.57,1.83Z" fill="#fff"/><path d="M313.62,289.58H286.15l0-1.76c.07-5.39.18-13.55-3.86-18.4l-1-1.18h37.13l-1,1.18c-4,4.86-3.93,13-3.86,18.42Zm-26-1.44h24.55v-.28c-.07-5.21-.17-12.89,3.32-18.18H284.29c3.49,5.28,3.39,13,3.32,18.16Zm9.7-80.16-4.11-2.11v-6.65l1.38.4a5.06,5.06,0,0,1,2.43,1.2,4.35,4.35,0,0,1,1.72-2,9.21,9.21,0,0,0,.82-.65l.48-.43.48.43a9.21,9.21,0,0,0,.82.65,4.31,4.31,0,0,1,1.73,2,5.08,5.08,0,0,1,2.41-1.2l1.4-.41v6.66L302.75,208Zm-2.67-3,3,1.55h4.74l3-1.55v-3.86c-1.12.35-1.72.71-1.81,2l-1.43.06c-.35-2.29-.83-2.64-1.7-3.28l-.45-.34a4.43,4.43,0,0,1-.45.34c-.87.64-1.35,1-1.7,3.28l-1.43-.06c-.09-1.33-.68-1.69-1.81-2Z"/><path d="M297.24,215.87l-5.91-4.07V207c2.07.48,4.4.67,4.63,3.22.72-3.63,2-5.51,4.07-6.93,2.05,1.42,3.35,3.3,4.07,6.93.23-2.55,2.56-2.74,4.64-3.22v4.83l-5.92,4.07Z" fill="#fff"/><path d="M303,216.59h-6l-6.41-4.41v-6.12l1.54.35a6.76,6.76,0,0,1,3.63,1.56,9.59,9.59,0,0,1,3.84-5.3l.41-.28.41.28a9.59,9.59,0,0,1,3.84,5.3,6.8,6.8,0,0,1,3.63-1.56l1.55-.35v6.12Zm-5.57-1.44h5.12l5.43-3.72v-3.57c-1.89.41-3.06.79-3.2,2.4l-1.42.08c-.59-3-1.58-4.8-3.37-6.18-1.79,1.38-2.78,3.21-3.37,6.18l-1.42-.08c-.14-1.61-1.31-2-3.19-2.4v3.57Z"/><path d="M296.82,229.3l-6.8-6v-7.1c2.38.7,5.06,1,5.33,4.73.83-5.34,2.32-8.1,4.68-10.18,2.35,2.08,3.85,4.84,4.68,10.18.26-3.74,2.94-4,5.33-4.74v7.11l-6.81,6Zm12.56,7.93-6.16,8.52h-7l-6.15-8.52Zm-22.83,14.3c3.08,1.68,4.21,5,4.54,11.33h17.33c.33-6.3,1.47-9.65,4.54-11.33Z" fill="#fff"/><path d="M309.1,263.58H290.41l0-.68c-.34-6.35-1.47-9.26-4.18-10.74l.35-1.35H313l.35,1.35c-2.71,1.48-3.84,4.39-4.17,10.74Zm-17.33-1.44h16c.27-4.32,1-7.72,3.09-9.89H288.68C290.79,254.42,291.5,257.82,291.77,262.14Zm11.82-15.67h-7.7l-7.2-10h22.1Zm-7-1.44h6.24L308,238H291.51Zm-.07-15-7.25-6.37v-8.4l.92.28.77.21c1.46.4,3.16.87,4.18,2.34a14.17,14.17,0,0,1,4.38-7.85l.48-.42.47.42a14.11,14.11,0,0,1,4.38,7.85c1-1.48,2.73-1.94,4.19-2.34l.76-.22.93-.27v8.39L303.5,230Zm-5.81-7,6.36,5.58H303l6.35-5.58v-5.83c-2.07.57-3.69,1.07-3.88,3.84l-1.43.06c-.7-4.46-1.86-7.22-4-9.3-2.11,2.08-3.28,4.84-4,9.3l-1.43-.06c-.2-2.77-1.82-3.27-3.89-3.83Z"/><path d="M313.22,237.23v-8.55a7.82,7.82,0,0,0-5.66,4.89c0-2.84-3.74-9.39-7.82-12.65-4.08,3.65-7.88,9.57-7.8,12.65a7.8,7.8,0,0,0-5.67-4.89v8.55Z" fill="#fff"/><path d="M313.22,238h-27l-.72-.72v-8.55l.92-.69a9.38,9.38,0,0,1,5.13,3.35c1.11-3.51,4.46-8.09,7.67-11l.92,0a26.41,26.41,0,0,1,7.68,11A9,9,0,0,1,313,228l.91.69v8.55ZM287,236.51H312.5v-6.84a6.91,6.91,0,0,0-4.27,4.14l-1.4-.24c0-2.54-3.36-8.47-7.06-11.69-3.84,3.61-7.18,9-7.11,11.67l-1.41.23a6.81,6.81,0,0,0-4.26-4.1Z"/><path d="M314.52,251.53V243c-3.2.8-5.28,2.53-6.21,4.88,0-2.84-4.09-9.38-8.56-12.64-4.48,3.65-8.64,9.57-8.56,12.64-.76-2.24-3-4.08-6.21-4.88v8.55Z" fill="#fff"/><path d="M314.52,252.25H285l-.72-.72V243l.9-.7a10.1,10.1,0,0,1,5.69,3.45c1.18-3.53,4.9-8.18,8.45-11.07l.88,0a26.33,26.33,0,0,1,8.45,11.18,9.76,9.76,0,0,1,5.72-3.54l.89.7v8.55Zm-28.82-1.44h28.1v-6.87a7.36,7.36,0,0,0-4.82,4.19l-1.39-.27c0-2.54-3.73-8.52-7.81-11.72-4.24,3.61-7.94,9.07-7.87,11.7l-1.4.26a7.27,7.27,0,0,0-4.81-4.16Z"/><path d="M318.12,269.08v-9.87a14.25,14.25,0,0,0-7.72,5.7c0-5.34-6-13.48-10.65-16.15-4.74,2.74-10.65,11.15-10.65,16.15-1.29-1.71-3.74-4.67-7.73-5.7v9.87Z" fill="#fff"/><path d="M318.12,269.8H281.37l-.72-.72v-9.87l.9-.69a13.92,13.92,0,0,1,7,4.6c1.09-5.33,6.51-12.5,10.81-15h.72c4.34,2.51,9.74,9.55,10.82,15a13.94,13.94,0,0,1,7-4.58l.91.69v9.87Zm-36-1.44H317.4v-8.18a13.73,13.73,0,0,0-6.42,5.16l-1.3-.43c0-4.8-5.49-12.51-9.93-15.31-4.35,2.76-9.93,10.6-9.93,15.31l-1.3.44a14.18,14.18,0,0,0-6.43-5.16Z"/><path d="M316,291V280.84c-3.51,1.38-4.57,4.77-5.67,7.07.43-10.29-5.8-21.34-10.54-24.15-4.74,2.81-11.09,14.1-10.54,24.15-1.13-2.29-2.16-5.69-5.68-7.07V291Z" fill="#fff"/><path d="M316,291.7H283.53l-.72-.72V280.84l1-.67a9,9,0,0,1,4.73,4.61c.69-9.67,6.59-19.12,10.85-21.64h.74c4.29,2.54,10.09,11.81,10.83,21.65a9,9,0,0,1,4.75-4.62l1,.67V291Zm-31.71-1.44h31V282c-2.05,1.22-3,3.32-3.84,5.21-.16.36-.31.7-.46,1l-1.37-.34c.42-10-5.5-20.34-9.82-23.27-4.44,3-10.34,13.71-9.82,23.26l-1.36.36c-.18-.36-.36-.74-.54-1.15-.84-1.84-1.77-3.89-3.78-5.09Z"/><path d="M313.5,306.34V296.2c-3.68.87-3.91,2.23-5.08,4.5.43-6.14-3.92-13.15-8.66-16-4.75,2.81-9.1,9.82-8.66,16-1.17-2.27-1.32-3.63-5.09-4.5v10.14Z" fill="#fff"/><path d="M314.23,307.06H285.29V295.29l.88.2c2.49.58,3.57,1.41,4.3,2.47a20.39,20.39,0,0,1,8.92-13.83l.37-.22.36.22A20.38,20.38,0,0,1,309.05,298c.74-1.08,1.83-1.91,4.29-2.49l.89-.22Zm-27.5-1.44h26v-8.48c-2.13.66-2.56,1.54-3.33,3.11l-.39.78-1.36-.38c.41-5.79-3.71-12.33-7.94-15.06-4.23,2.73-8.36,9.27-7.95,15.06l-1.35.38c-.16-.3-.3-.59-.43-.86-.74-1.53-1.15-2.39-3.3-3Z"/><path d="M155.37,343.94V313.28c-1-3.9-4.32-7.35-6.81-8v-27l5.61,3,6.4,28.22v34.44Z" fill="#fff"/><path d="M161.29,344.66h-6.64V313.38c-1-3.64-4.08-6.84-6.29-7.45l-.52-.15V277l7,3.76,6.49,28.7Zm-5.2-1.44h3.76V309.58l-6.31-27.82-4.26-2.31v25.27c2.58,1,5.77,4.45,6.78,8.39l0,.17Z"/><path d="M155.37,344.06V313.28c-1-3.9-4.32-7.35-6.81-8V276.37c3.76,0,5.61,4.91,5.61,4.91l6.4,28.22v34.33Z" fill="#fff"/><path d="M154.65,344.82V313.38c-1-3.64-4.08-6.84-6.29-7.45l-.52-.15V275.65h.72c4.21,0,6.2,5.16,6.28,5.38l6.45,28.47v35Zm-5.37-40.1c2.58,1,5.77,4.45,6.78,8.38l0,.18v30l3.76-.17V309.58l-6.39-28.14h0s-1.45-3.7-4.18-4.27Z"/><path d="M151.38,351.92c2.59-1.17,6.37-4.38,6.37-7.6V306L156,302.84h65.29L218.71,306v38.32c0,3.22,2.59,6.43,5.19,7.6Z" fill="#fff"/><path d="M223.9,352.65H151.38l-.3-1.38c2.5-1.13,5.95-4.17,5.95-6.95V306.19l-2.29-4.07h68l-3.33,4.13v38.07c0,3,2.47,5.91,4.77,6.95ZM154,351.2h67.49a9.53,9.53,0,0,1-3.5-6.88V305.75l1.76-2.19H157.2l1.27,2.25v38.51C158.47,347,156.28,349.54,154,351.2Z"/><path d="M210.72,351.92c-2.59-1.17-6.37-4.38-6.37-7.6V307.87l5.43-5H165.4l5.43,5v36.45c0,3.22-3.78,6.43-6.38,7.6Z" fill="#fff"/><path d="M210.72,352.65H164.45l-.29-1.38c2.49-1.13,6-4.17,6-6.95V308.19l-6.55-6.07h48.05l-6.54,6.08v36.13c0,2.78,3.46,5.82,6,6.95Zm-43.65-1.45h41c-2.28-1.66-4.47-4.22-4.47-6.88V307.56l4.32-4H167.23l4.32,4v36.76C171.55,347,169.36,349.54,167.07,351.2Z"/><path d="M204.5,351.92c-2.6-1.17-6.38-4.38-6.38-7.6V311.37l3.56-5h-28.2l3.56,5v32.95c0,3.22-3.78,6.43-6.38,7.6Z" fill="#fff"/><path d="M204.5,352.65H170.66l-.29-1.38c2.49-1.13,5.95-4.17,5.95-6.95V311.6l-4.23-6h31l-4.23,6v32.72c0,2.78,3.46,5.82,6,6.95Zm-31.22-1.45h28.6c-2.29-1.66-4.48-4.22-4.48-6.88V311.14l2.89-4.09H174.87l2.89,4.09v33.18C177.76,347,175.57,349.54,173.28,351.2Z"/><path d="M180.84,306.34h13.48v45.59H180.84Z" fill="#fff"/><path d="M195,352.65H180.12v-47H195Zm-13.48-1.44h12V307.06h-12Z"/><path d="M162.51,319.06h5.38V343.8h-5.38Zm46.13,0H214V343.8h-5.38Zm-50.72-41.73h6.48v25.36h-6.48Zm0-4.77h6.45v4.71h-6.45Z" fill="#fff"/><path d="M214,344.52h-5.38l-.72-.72V319.06l.72-.72H214l.72.72V343.8Zm-4.66-1.44h3.94v-23.3h-3.94Zm-41.47,1.44h-5.38l-.72-.72V319.06l.72-.72h5.38l.72.72V343.8Zm-4.66-1.44h3.94v-23.3h-3.94Zm1.17-39.67h-6.48l-.72-.72V272.56l.72-.72h6.45l.72.72,0,30.13ZM158.64,302h5V278.05h-5Zm0-25.42h5v-3.27h-5Z"/><path d="M211.22,282.79h9.24v19.58h-9.24Z" fill="#fff"/><path d="M220.46,303.15h-9.24l-.78-.78V282.79l.78-.78h9.24l.78.78v19.58ZM212,301.6h7.68v-18H212Z"/><path d="M164.3,302.5V259.09c1.85,0,2.13,6.36,6.37,6.36,2.21,0,2-2.63.74-4.78-1.1-1.9-2.46-4.53-.61-9.42,1.26,3.74,4.67,4.93,4,2.58-1.08-4-4.2-4.69-1.86-11,.81,5.22,4.16,5,3.35,2-.92-3.42-2.81-4.83-.48-9.65,1.31,5.48,3.08,5.16,3.08,1.76,0-5-.19-10.44,6.3-12.44,0,0,.38-4.61,2.72-4.61s2.72,4.61,2.72,4.61c6.5,2,6.3,7.42,6.3,12.44,0,3.4,1.77,3.72,3.08-1.75,2.34,4.82.44,6.22-.47,9.64-.82,3,2.53,3.26,3.34-2,2.34,6.26-.77,6.92-1.86,11-.62,2.35,2.78,1.16,4.05-2.58,1.84,4.89.48,7.52-.62,9.42-1.23,2.15-1.47,4.78.74,4.78,4.24,0,4.52-6.36,6.37-6.36V302.5Zm-10.15-32.79v33.12h3.77v-33.2a3.3,3.3,0,0,0-3.77.08Z" fill="#fff"/><path d="M158.64,303.55h-5.21V269.36l.28-.22a4,4,0,0,1,4.53-.16l.4.2Zm-3.77-1.44h2.33v-32a2.46,2.46,0,0,0-2.33,0Zm57.45,1.11H163.58V258.37h.72c1.19,0,1.78,1.21,2.46,2.62.85,1.75,1.81,3.74,3.91,3.74.6,0,.74-.25.8-.35.36-.63.07-2-.69-3.35-1-1.74-2.69-4.66-.66-10l.71-1.88.65,1.91c.74,2.18,2.18,3.22,2.71,3.3a1.07,1.07,0,0,0-.05-.3,11.36,11.36,0,0,0-1.31-2.91c-1.16-2-2.25-3.87-.53-8.48l1-2.58.43,2.72c.37,2.41,1.28,3.33,1.71,3.47.14,0,.18,0,.19,0s.23-.52,0-1.22a19.37,19.37,0,0,0-.74-2.12c-.85-2.19-1.6-4.08.31-8l.88-1.81.47,2c.59,2.47,1.17,3.31,1.42,3.57a4.34,4.34,0,0,0,.24-1.65v-.42c0-4.86,0-10.35,6.36-12.56.18-1.35.89-4.79,3.38-4.79s3.2,3.44,3.38,4.79c6.38,2.21,6.37,7.7,6.36,12.56V237a4.34,4.34,0,0,0,.24,1.65c.25-.26.83-1.1,1.42-3.57l.47-2,.88,1.81c1.91,3.94,1.17,5.83.31,8a19.4,19.4,0,0,0-.73,2.12c-.19.7-.09,1.12,0,1.22s.05.06.19,0c.43-.15,1.34-1.07,1.71-3.48l.43-2.72,1,2.58c1.72,4.61.63,6.49-.52,8.48a11.68,11.68,0,0,0-1.32,2.91,1.13,1.13,0,0,0,0,.3c.54-.08,2-1.11,2.71-3.3l.65-1.91.71,1.89c2,5.37.34,8.29-.66,10-.76,1.32-1.05,2.72-.68,3.35.05.1.2.35.79.35,2.1,0,3.06-2,3.91-3.73.69-1.41,1.28-2.63,2.46-2.63h.72ZM165,301.78h45.86v-41c-.16.3-.32.63-.44.88-.93,1.92-2.21,4.55-5.21,4.55a2.23,2.23,0,0,1-2-1.07c-.77-1.33-.15-3.34.68-4.79a8.49,8.49,0,0,0,1.1-7.08c-1.12,1.82-2.72,2.79-3.78,2.47-.61-.18-1.15-.82-.82-2a12.91,12.91,0,0,1,1.46-3.26,6.23,6.23,0,0,0,1.1-4.89,3.7,3.7,0,0,1-2,2.11,1.57,1.57,0,0,1-1.64-.31,2.62,2.62,0,0,1-.45-2.65,22.7,22.7,0,0,1,.79-2.27,6.61,6.61,0,0,0,.49-5c-.68,1.92-1.49,2.84-2.42,2.72-.56-.06-1.49-.56-1.49-3.18v-.42c0-4.91,0-9.54-5.79-11.34l-.47-.14,0-.48c-.1-1.29-.73-3.95-2-3.95s-1.93,3.11-2,3.94l0,.49-.46.14c-5.81,1.8-5.81,6.43-5.8,11.34V237c0,2.62-.93,3.12-1.49,3.18-.92.11-1.73-.8-2.42-2.73a6.69,6.69,0,0,0,.49,5,21.39,21.39,0,0,1,.79,2.28,2.62,2.62,0,0,1-.45,2.65,1.58,1.58,0,0,1-1.64.3,3.7,3.7,0,0,1-2-2.11,6.29,6.29,0,0,0,1.1,4.9,12.57,12.57,0,0,1,1.46,3.26c.33,1.23-.2,1.86-.81,2-1.06.32-2.67-.65-3.79-2.47a8.53,8.53,0,0,0,1.1,7.08c.83,1.44,1.45,3.46.68,4.79a2.22,2.22,0,0,1-2,1.07c-3,0-4.28-2.63-5.21-4.55-.12-.26-.28-.58-.44-.88Zm36.7-47.35Zm-27.53,0Z"/><path d="M154.27,291.14c4.67,2.39,9.29,5.15,10.46,11.69H154.27ZM219,281.23v21.61h3V281.18A3.22,3.22,0,0,0,219,281.23Z" fill="#fff"/><path d="M222.79,303.56H218.3v-22.7l.3-.22a4,4,0,0,1,3.78-.12l.41.2Zm-3-1.44h1.61V281.67a2.6,2.6,0,0,0-1.61,0Zm-54.15,1.43h-12V290l1,.53c4.82,2.47,9.63,5.44,10.84,12.21ZM155,302.11h8.86c-1.23-5.09-4.81-7.63-8.86-9.78Z"/><path d="M222.08,291c-4.67,2.38-9.29,5.15-10.46,11.69h10.46Z" fill="#fff"/><path d="M222.8,303.39h-12l.15-.85c1.21-6.77,6-9.74,10.84-12.2l1.05-.54ZM212.5,302h8.86v-9.78C217.31,294.32,213.72,296.86,212.5,302Z"/><path d="M191.21,240.5l2.72-2.28v-2.93a2.84,2.84,0,0,0-2.27,1.4,7.52,7.52,0,0,0-3.85-4.4,7.38,7.38,0,0,0-3.84,4.33,2.79,2.79,0,0,0-2.27-1.33v2.93l2.72,2.28Z" fill="#fff"/><path d="M191.47,241.22h-7.31L181,238.55v-4.06l.8.08a3.34,3.34,0,0,1,2,.74,8.29,8.29,0,0,1,3.76-3.66l.32-.17.33.17a8.24,8.24,0,0,1,3.75,3.72,3.29,3.29,0,0,1,2-.8l.79-.08v4.06Zm-6.79-1.44H191l2.26-1.9V236.2a2.92,2.92,0,0,0-1,.93l-.84,1.09-.42-1.31a6.7,6.7,0,0,0-3.16-3.8,6.58,6.58,0,0,0-3.16,3.73l-.42,1.32-.83-1.1a2.42,2.42,0,0,0-1-.88v1.7Z"/><path d="M192.66,247.84l1.27-2.74v-3.81a2.86,2.86,0,0,0-2.27,1.43,7.61,7.61,0,0,0-3.85-4.46,7.43,7.43,0,0,0-3.84,4.39,2.8,2.8,0,0,0-2.28-1.36v3.81l1.27,2.74Z" fill="#fff"/><path d="M182.5,248.56,181,245.1v-4.6l.8.08a3.39,3.39,0,0,1,2,.74,8.39,8.39,0,0,1,3.75-3.7l.33-.18.33.18a8.42,8.42,0,0,1,3.75,3.76,3.36,3.36,0,0,1,2-.81l.79-.08-.07,4.91-1.46,3.16Zm-.09-3.61,1,2.17h8.78l1-2.18v-2.73a3,3,0,0,0-1,.94l-.84,1.12-.42-1.34a6.77,6.77,0,0,0-3.16-3.85,6.63,6.63,0,0,0-3.16,3.79l-.42,1.32-.84-1.11a2.5,2.5,0,0,0-1-.89Z"/><path d="M192.86,257.78l4-4.93V248c-1.48.16-2.28.75-3.38,2.41-.93-3.33-3-4.06-5.71-5.68-2.73,1.62-4.78,2.23-5.7,5.56-1.1-1.66-1.9-2.12-3.38-2.29v4.86l4,4.93Z" fill="#fff"/><path d="M193.2,258.5H182.43L178,253.11v-5.93l.8.09a4.38,4.38,0,0,1,3.07,1.52c1-2.12,2.56-3,4.35-4,.39-.22.8-.44,1.22-.69l.36-.22.37.22,1,.59c1.87,1.07,3.52,2,4.53,4.2a4.32,4.32,0,0,1,3.07-1.62l.8-.09v5.93Zm-10.09-1.44h9.41l3.66-4.46v-3.73a4.16,4.16,0,0,0-2.06,1.93l-.86,1.31-.43-1.52c-.73-2.61-2.16-3.42-4.32-4.64l-.7-.4-.88.5c-2.06,1.15-3.43,1.9-4.13,4.42l-.42,1.52-.87-1.31a3.67,3.67,0,0,0-2.06-1.83v3.75Z"/><path d="M194,267.55s4.71-4.11,5-6.37V256a6,6,0,0,0-4.9,2.83c-1.14-4.31-2.94-5.51-6.31-7.6-3.38,2.09-5.17,3.29-6.32,7.6a6,6,0,0,0-4.9-2.83v5.2c.59,2.26,5,6.37,5,6.37Z" fill="#fff"/><path d="M194.31,268.27h-13l-.2-.2c-.47-.43-4.57-4.32-5.2-6.71l0-.18v-6l.8.1a6.89,6.89,0,0,1,4.54,2c1.21-3.44,3.06-4.72,6.22-6.67l.38-.23.38.23c3.15,2,5,3.24,6.22,6.67a6.85,6.85,0,0,1,4.53-2l.8-.1v6c-.31,2.55-4.73,6.47-5.23,6.91Zm-12.44-1.44h11.9c1.75-1.56,4.38-4.35,4.55-5.74v-4.27a4.86,4.86,0,0,0-3.58,2.37l-.88,1.39-.42-1.59c-1-3.82-2.49-5-5.62-6.93-3.14,1.95-4.61,3.11-5.63,6.93l-.42,1.59-.88-1.39a4.86,4.86,0,0,0-3.57-2.37v4.26C177.81,262.69,180.59,265.6,181.87,266.83Z"/><path d="M196.05,285.58s6.45-7.14,6.6-9.92v-8.11c-2.41.33-4.69,2-6.48,5.32-1.51-6.71-3.88-11.39-8.35-14.64-4.47,3.25-6.84,7.93-8.36,14.64-1.78-3.33-4.07-5-6.48-5.33v8.11c.46,2.79,6.6,9.93,6.6,9.93Z" fill="#fff"/><path d="M196.37,286.3H179.25l-.21-.25c-.65-.75-6.29-7.38-6.77-10.28v-9l.82.11a9,9,0,0,1,6.1,4.18c1.67-6.37,4.18-10.43,8.22-13.37l.42-.31.42.31c4,2.94,6.55,7,8.22,13.37a9,9,0,0,1,6.1-4.18l.81-.11v8.94c-.16,3-6.1,9.65-6.78,10.4Zm-16.46-1.44h15.82c2.44-2.73,6.11-7.46,6.21-9.24v-7.19c-2,.58-3.75,2.21-5.12,4.78l-.91,1.7-.43-1.88c-1.53-6.75-3.83-10.95-7.65-13.9-3.83,2.95-6.13,7.15-7.65,13.9l-.43,1.89-.91-1.71c-1.38-2.57-3.14-4.21-5.13-4.78v7.22C174,277.57,178.11,282.73,179.91,284.86Z"/><path d="M196.05,296.24s5.52-5.61,6.6-8.05v-8.1c-2.41.33-4.69,2-6.48,5.32-1.51-6.71-3.88-10.55-8.35-13.81-4.47,3.26-6.84,7.1-8.36,13.81-1.78-3.33-4.07-5-6.48-5.33v8.11c1.4,2.44,6.6,8.05,6.6,8.05Z" fill="#fff"/><path d="M196.36,297H179.27l-.22-.23c-.21-.23-5.27-5.7-6.69-8.18l-.1-.16v-9.13l.82.11a9,9,0,0,1,6.1,4.18c1.56-5.82,3.95-9.42,8.22-12.53l.42-.31.42.31c4.27,3.11,6.66,6.71,8.22,12.53a9,9,0,0,1,6.1-4.18l.81-.11-.06,9.23c-1.12,2.52-6.51,8-6.74,8.26Zm-16.46-1.44h15.85c1.61-1.65,5.26-5.61,6.18-7.49V281c-2,.58-3.74,2.21-5.12,4.78l-.91,1.7-.43-1.88c-1.41-6.25-3.58-10-7.65-13.07-4.08,3.1-6.24,6.82-7.65,13.07l-.43,1.89-.91-1.71c-1.38-2.57-3.14-4.21-5.13-4.78v7A74.15,74.15,0,0,0,179.9,295.52Z"/><path d="M198.27,302.44c-1.6-7-3-12.2-10.74-17.46-7.75,5.26-9.13,10.46-10.74,17.46Z" fill="#fff"/><path d="M199.18,303.16h-23.3l.2-.88c1.52-6.61,2.84-12.32,11-17.9l.4-.27.4.27c8.21,5.58,9.53,11.29,11,17.9Zm-21.49-1.44h19.68c-1.57-6.67-3.12-11.17-9.84-15.87C180.81,290.55,179.26,295.05,177.69,301.72Z"/><path d="M202.26,306.34V296.2c-3.51,1.38-6.7,3.42-7.87,5.69-1.31-5.63-3.83-8.11-7-11.52-3.14,3.41-5.25,5.89-6.56,11.52-1.17-2.27-4.35-4.31-7.88-5.69v10.14Z" fill="#fff"/><path d="M203,307.06H172.25V295.14l1,.39a18.78,18.78,0,0,1,7.31,4.66c1.33-4.64,3.34-7.07,6.33-10.31l.53-.57,1,1.12c2.6,2.81,4.88,5.26,6.23,9.77a18.72,18.72,0,0,1,7.32-4.67l1-.39Zm-29.29-1.44h27.85v-8.35c-3.22,1.41-5.62,3.23-6.51,5l-.9,1.74-.44-1.91c-1.19-5.12-3.44-7.55-6.28-10.62-2.83,3.1-4.66,5.49-5.86,10.62l-.44,1.91-.9-1.74c-.89-1.73-3.29-3.54-6.52-5Z"/><path d="M444.67,343.94V313.28c1-3.9,4.32-7.35,6.81-8v-27l-5.61,3-6.41,28.22v34.44Z" fill="#fff"/><path d="M445.39,344.66h-6.65l0-35.32,6.48-28.54,7-3.76v28.74l-.53.15c-2.2.61-5.31,3.81-6.28,7.45Zm-5.21-1.44H444l0-30.11c1-3.94,4.2-7.36,6.78-8.39V279.45l-4.26,2.31-6.32,27.82Z"/><path d="M444.67,344.06V313.28c1-3.9,4.32-7.35,6.81-8V276.37c-3.76,0-5.61,4.91-5.61,4.91l-6.41,28.22v34.33Z" fill="#fff"/><path d="M445.39,344.82l-6.65-.3,0-35.18,6.41-28.22c.11-.31,2.1-5.47,6.31-5.47h.72v30.13l-.53.15c-2.2.61-5.31,3.81-6.28,7.45Zm-5.21-1.68,3.77.17,0-30.21c1-3.93,4.2-7.35,6.78-8.38V277.17c-2.75.58-4.2,4.32-4.21,4.37l-6.37,28Z"/><path d="M448.66,351.92c-2.59-1.17-6.37-4.38-6.37-7.6V306l1.78-3.16H378.78l2.55,3.16v38.32c0,3.22-2.6,6.43-5.19,7.6Z" fill="#fff"/><path d="M448.66,352.65H376.14l-.3-1.38c2.3-1,4.77-4,4.77-6.95V306.25l-3.33-4.13h68L443,306.19v38.13c0,2.78,3.45,5.82,5.95,6.95Zm-70.11-1.45H446c-2.28-1.66-4.47-4.22-4.47-6.88V305.81l1.27-2.25H380.29l1.76,2.19v38.57A9.53,9.53,0,0,1,378.55,351.2Z"/><path d="M389.31,351.92c2.6-1.17,6.38-4.38,6.38-7.6V307.87l-5.43-5h44.38l-5.43,5v36.45c0,3.22,3.78,6.43,6.38,7.6Z" fill="#fff"/><path d="M435.59,352.65H389.31l-.29-1.38c2.49-1.13,6-4.17,6-6.95V308.19l-6.54-6.08h48.05l-6.55,6.07v36.13c0,2.78,3.46,5.82,5.95,6.95Zm-43.65-1.45h41c-2.29-1.66-4.48-4.22-4.48-6.88V307.56l4.32-4H392.09l4.32,4v36.76C396.41,347,394.22,349.54,391.94,351.2Z"/><path d="M395.54,351.92c2.59-1.17,6.37-4.38,6.37-7.6V311.37l-3.55-5h28.2l-3.56,5v32.95c0,3.22,3.78,6.43,6.38,7.6Z" fill="#fff"/><path d="M429.38,352.65H395.54l-.3-1.38c2.5-1.13,5.95-4.17,5.95-6.95V311.6l-4.22-6h31l-4.23,6v32.72c0,2.78,3.46,5.82,5.95,6.95Zm-31.22-1.45h28.59c-2.28-1.66-4.47-4.22-4.47-6.88V311.14l2.89-4.09H399.75l2.89,4.09v33.18C402.64,347,400.44,349.54,398.16,351.2Z"/><path d="M419.19,306.34H405.72v45.59h13.47Z" fill="#fff"/><path d="M419.92,352.65H405v-47h14.92Zm-13.48-1.44h12V307.06h-12Z"/><path d="M437.52,319.06h-5.37V343.8h5.37Zm-46.12,0H386V343.8h5.38Zm50.71-41.73h-6.48v25.36h6.48Zm0-4.77h-6.44v4.71h6.44Z" fill="#fff"/><path d="M437.52,344.52h-5.37l-.73-.72V319.06l.73-.72h5.37l.72.72V343.8Zm-4.65-1.44h3.93v-23.3h-3.93Zm-41.47,1.44H386l-.72-.72V319.06l.72-.72h5.38l.72.72V343.8Zm-4.66-1.44h3.94v-23.3h-3.94Zm55.37-39.67h-6.48l-.72-.72,0-30.13.72-.72h6.44l.73.72v30.13ZM436.35,302h5V278.05h-5Zm0-25.42h5v-3.27h-5Z"/><path d="M388.82,282.79h-9.24v19.58h9.24Z" fill="#fff"/><path d="M388.82,303.15h-9.24l-.78-.78V282.79l.78-.78h9.24l.77.78v19.58Zm-8.47-1.55H388v-18h-7.69Z"/><path d="M435.74,302.5V259.09c-1.85,0-2.13,6.36-6.38,6.36-2.2,0-2-2.63-.73-4.78,1.1-1.9,2.46-4.53.61-9.42-1.26,3.74-4.67,4.93-4,2.58,1.08-4,4.19-4.69,1.86-11-.81,5.22-4.16,5-3.35,2,.92-3.42,2.81-4.83.48-9.65-1.31,5.48-3.08,5.16-3.08,1.76,0-5,.19-10.44-6.3-12.44,0,0-.38-4.61-2.72-4.61s-2.72,4.61-2.72,4.61c-6.5,2-6.31,7.42-6.31,12.44,0,3.4-1.77,3.72-3.07-1.75-2.34,4.82-.45,6.22.47,9.64.82,3-2.54,3.26-3.35-2-2.33,6.26.78,6.92,1.86,11,.63,2.35-2.77,1.16-4-2.58-1.84,4.89-.48,7.52.61,9.42,1.24,2.15,1.48,4.78-.73,4.78-4.24,0-4.53-6.36-6.37-6.36V302.5Zm10.15-32.79v33.12h-3.77v-33.2a3.3,3.3,0,0,1,3.77.08Z" fill="#fff"/><path d="M446.61,303.55H441.4V269.18l.4-.2a4,4,0,0,1,4.53.16l.28.22Zm-3.77-1.44h2.33v-32a2.49,2.49,0,0,0-2.33,0Zm-55.12,1.11V258.37h.72c1.18,0,1.77,1.22,2.46,2.63.84,1.75,1.81,3.73,3.91,3.73.59,0,.74-.25.79-.35.37-.63.08-2-.68-3.35-1-1.74-2.69-4.66-.66-10l.71-1.89.65,1.91c.73,2.19,2.17,3.22,2.71,3.3a1.13,1.13,0,0,0-.05-.3,11.8,11.8,0,0,0-1.32-2.9c-1.15-2-2.24-3.88-.52-8.49l1-2.58.43,2.72c.37,2.41,1.28,3.33,1.71,3.48.14,0,.17,0,.19,0s.22-.52,0-1.22a19.4,19.4,0,0,0-.73-2.12c-.86-2.19-1.6-4.08.31-8l.88-1.81.47,2c.59,2.47,1.17,3.31,1.41,3.57a4.14,4.14,0,0,0,.24-1.65v-.42c0-4.86,0-10.35,6.36-12.56.19-1.35.9-4.79,3.39-4.79s3.2,3.44,3.38,4.79c6.37,2.21,6.37,7.7,6.36,12.56V237a4.34,4.34,0,0,0,.24,1.65c.25-.26.83-1.1,1.42-3.57l.47-2,.88,1.82c1.91,3.94,1.16,5.83.3,8a21.78,21.78,0,0,0-.73,2.12c-.19.7-.08,1.11,0,1.22s.05,0,.19,0c.43-.14,1.34-1.06,1.71-3.47l.42-2.72,1,2.58c1.71,4.61.63,6.49-.53,8.48A11.36,11.36,0,0,0,425.9,254a1.07,1.07,0,0,0,0,.3c.53-.08,2-1.12,2.71-3.3l.65-1.91.71,1.88c1.87,5,.64,7.79-.66,10-.76,1.31-1.05,2.72-.69,3.35.06.1.2.35.79.35,2.11,0,3.07-2,3.92-3.74.68-1.41,1.27-2.62,2.46-2.62h.72v44.85H387.72Zm1.44-42.48v41H435v-41c-.16.3-.32.62-.44.88-.93,1.92-2.21,4.55-5.22,4.55a2.21,2.21,0,0,1-2-1.07c-.77-1.33-.16-3.35.68-4.79a8.53,8.53,0,0,0,1.1-7.08c-1.12,1.82-2.72,2.79-3.79,2.47-.61-.19-1.14-.82-.81-2a12.57,12.57,0,0,1,1.46-3.26,6.25,6.25,0,0,0,1.09-4.9,3.65,3.65,0,0,1-1.95,2.11,1.58,1.58,0,0,1-1.64-.3,2.6,2.6,0,0,1-.45-2.65,21.49,21.49,0,0,1,.78-2.28,6.62,6.62,0,0,0,.5-5c-.69,1.92-1.51,2.83-2.42,2.72-.56-.06-1.49-.56-1.49-3.18v-.42c0-4.91,0-9.54-5.8-11.34l-.46-.14,0-.48c-.11-1.29-.74-3.95-2-3.95s-1.9,2.66-2,3.95l0,.48-.46.14c-5.81,1.8-5.8,6.43-5.8,11.34V237c0,2.62-.94,3.12-1.49,3.18-.91.12-1.74-.8-2.42-2.72a6.57,6.57,0,0,0,.49,5,21.49,21.49,0,0,1,.78,2.28,2.6,2.6,0,0,1-.44,2.65,1.61,1.61,0,0,1-1.65.31,3.71,3.71,0,0,1-1.95-2.11,6.23,6.23,0,0,0,1.1,4.89,13.28,13.28,0,0,1,1.46,3.26c.33,1.23-.21,1.87-.82,2-1.05.32-2.66-.65-3.78-2.47a8.49,8.49,0,0,0,1.1,7.08c.83,1.45,1.45,3.46.68,4.79a2.23,2.23,0,0,1-2,1.07c-3,0-4.28-2.63-5.21-4.55C389.48,261.37,389.32,261,389.16,260.74Zm9.16-6.31Zm27.53,0Z"/><path d="M445.77,291.14c-4.67,2.39-9.29,5.15-10.46,11.69h10.46ZM381,281.23v21.61h-3V281.18A3.22,3.22,0,0,1,381,281.23Z" fill="#fff"/><path d="M381.74,303.56h-4.49V280.72l.41-.2a4,4,0,0,1,3.78.12l.3.22Zm-3.05-1.44h1.61V281.66a2.6,2.6,0,0,0-1.61,0Zm67.8,1.43h-12l.15-.84c1.21-6.77,6-9.74,10.84-12.21l1.05-.53Zm-10.3-1.44h8.86v-9.78C441,294.48,437.42,297,436.19,302.11Z"/><path d="M378,291c4.67,2.38,9.29,5.15,10.46,11.69H378Z" fill="#fff"/><path d="M389.28,303.39h-12V289.8l1.05.54c4.82,2.46,9.63,5.43,10.84,12.2ZM378.68,302h8.86c-1.23-5.09-4.81-7.63-8.86-9.78Z"/><path d="M408.83,240.5l-2.72-2.28v-2.93a2.86,2.86,0,0,1,2.27,1.4,7.52,7.52,0,0,1,3.85-4.4,7.41,7.41,0,0,1,3.84,4.33,2.77,2.77,0,0,1,2.27-1.33v2.93l-2.72,2.28Z" fill="#fff"/><path d="M415.88,241.22h-7.31l-3.18-2.67v-4.06l.79.08a3.26,3.26,0,0,1,2,.8,8.31,8.31,0,0,1,3.76-3.72l.33-.17.32.17a8.29,8.29,0,0,1,3.76,3.66,3.34,3.34,0,0,1,2-.74l.79-.08v4.06Zm-6.79-1.44h6.27l2.26-1.9v-1.7a2.46,2.46,0,0,0-1,.88l-.83,1.09-.43-1.31a6.53,6.53,0,0,0-3.15-3.73,6.67,6.67,0,0,0-3.16,3.8l-.43,1.31-.83-1.09a2.92,2.92,0,0,0-1-.93v1.68Z"/><path d="M407.37,247.84l-1.26-2.74v-3.81a2.86,2.86,0,0,1,2.27,1.43,7.58,7.58,0,0,1,3.85-4.46,7.43,7.43,0,0,1,3.84,4.39,2.8,2.8,0,0,1,2.28-1.36v3.81l-1.27,2.74Z" fill="#fff"/><path d="M417.54,248.56H406.91l-1.52-3.46v-4.61l.79.08a3.36,3.36,0,0,1,2,.81,8.42,8.42,0,0,1,3.75-3.76l.33-.18.33.18a8.39,8.39,0,0,1,3.75,3.7,3.36,3.36,0,0,1,2-.74l.8-.08-.07,4.91Zm-9.71-1.44h8.79l1-2.17v-2.76a2.5,2.5,0,0,0-1,.89l-.84,1.11-.42-1.32a6.63,6.63,0,0,0-3.16-3.79,6.77,6.77,0,0,0-3.16,3.85l-.42,1.33-.84-1.11a3,3,0,0,0-1-.94v2.73Z"/><path d="M407.18,257.78l-4-4.93V248c1.48.16,2.28.75,3.37,2.41.93-3.33,3-4.06,5.71-5.68,2.74,1.62,4.78,2.23,5.71,5.56,1.09-1.66,1.9-2.12,3.38-2.29v4.86l-4,4.93Z" fill="#fff"/><path d="M417.61,258.5H406.84l-4.42-5.39v-5.93l.8.09a4.32,4.32,0,0,1,3.07,1.62c1-2.2,2.66-3.13,4.53-4.19l1-.6.36-.22.37.22c.42.25.83.48,1.22.69,1.79,1,3.38,1.88,4.35,4a4.38,4.38,0,0,1,3.07-1.52l.8-.09v5.93Zm-10.09-1.44h9.41l3.66-4.46v-3.75a3.67,3.67,0,0,0-2.06,1.83l-.87,1.32-.42-1.53c-.7-2.52-2.07-3.27-4.13-4.42l-.89-.5-.69.4c-2.16,1.22-3.59,2-4.32,4.64l-.43,1.52-.87-1.32a4.13,4.13,0,0,0-2.05-1.92v3.73Z"/><path d="M406,267.55s-4.71-4.11-5-6.37V256a5.93,5.93,0,0,1,4.9,2.83c1.15-4.31,2.94-5.51,6.32-7.6,3.38,2.09,5.17,3.29,6.32,7.6a6,6,0,0,1,4.9-2.83v5.2c-.59,2.26-5,6.37-5,6.37Z" fill="#fff"/><path d="M405.73,268.27l-.21-.18c-.5-.44-4.92-4.36-5.23-6.82v-6.1l.81.1a6.89,6.89,0,0,1,4.53,2c1.22-3.44,3.07-4.72,6.23-6.67l.37-.23.38.23c3.15,2,5,3.23,6.22,6.67a6.89,6.89,0,0,1,4.54-2l.8-.1,0,6.19c-.63,2.39-4.73,6.28-5.2,6.71l-.2.2Zm-4-11.45v4.36c.17,1.31,2.8,4.09,4.55,5.65h11.89c1.29-1.23,4.07-4.14,4.56-5.75v-4.26a4.86,4.86,0,0,0-3.57,2.37l-.88,1.39-.42-1.59c-1-3.82-2.49-5-5.63-6.93-3.13,1.95-4.6,3.11-5.62,6.93l-.43,1.59-.88-1.39A4.85,4.85,0,0,0,401.72,256.82Z"/><path d="M404,285.58s-6.45-7.14-6.6-9.92v-8.11c2.42.33,4.7,2,6.48,5.32,1.52-6.71,3.89-11.39,8.36-14.64,4.47,3.25,6.84,7.93,8.35,14.64,1.79-3.33,4.07-5,6.49-5.33v8.11c-.46,2.79-6.6,9.93-6.6,9.93Z" fill="#fff"/><path d="M403.67,286.3l-.22-.24c-.68-.75-6.63-7.41-6.78-10.37v-9l.82.11a9,9,0,0,1,6.1,4.18c1.67-6.37,4.18-10.43,8.22-13.37l.42-.31.42.31c4,2.94,6.55,7,8.22,13.37a9,9,0,0,1,6.1-4.18l.82-.11v8.93c-.49,3-6.13,9.65-6.78,10.4l-.21.25Zm-5.57-17.87v7.23c.1,1.75,3.77,6.47,6.21,9.2h15.81c1.81-2.13,5.89-7.29,6.23-9.32v-7.11c-2,.57-3.75,2.21-5.13,4.78l-.91,1.7-.43-1.88c-1.52-6.75-3.82-10.95-7.65-13.9-3.82,2.95-6.13,7.15-7.65,13.9l-.43,1.88-.91-1.7C401.85,270.64,400.1,269,398.1,268.43Z"/><path d="M404,296.24s-5.51-5.61-6.6-8.05v-8.1c2.42.33,4.7,2,6.48,5.32,1.52-6.71,3.89-10.55,8.36-13.81,4.47,3.26,6.84,7.1,8.35,13.81,1.79-3.33,4.07-5,6.49-5.33v8.11c-1.4,2.44-6.6,8.05-6.6,8.05Z" fill="#fff"/><path d="M403.68,297l-.21-.21c-.23-.23-5.62-5.74-6.74-8.26l-.07-.3v-8.93l.82.11a9,9,0,0,1,6.1,4.18c1.56-5.82,3.95-9.42,8.22-12.53l.42-.31.42.31c4.27,3.11,6.66,6.71,8.22,12.54a9,9,0,0,1,6.1-4.19l.82-.11v9.13l-.1.16c-1.42,2.48-6.48,7.95-6.69,8.18l-.22.23ZM398.1,288c.93,1.88,4.58,5.84,6.19,7.49h15.85a74.15,74.15,0,0,0,6.2-7.52v-7c-2,.57-3.75,2.21-5.13,4.78l-.91,1.71-.43-1.89c-1.41-6.25-3.57-10-7.65-13.07-4.07,3.1-6.24,6.82-7.65,13.07l-.43,1.88-.91-1.7c-1.38-2.57-3.14-4.2-5.13-4.78Z"/><path d="M401.76,302.44c1.61-7,3-12.2,10.75-17.46,7.75,5.26,9.13,10.46,10.74,17.46Z" fill="#fff"/><path d="M424.16,303.16h-23.3l.2-.88c1.52-6.61,2.83-12.32,11-17.9l.41-.27.4.27c8.21,5.58,9.53,11.29,11,17.9Zm-21.49-1.44h19.68c-1.57-6.67-3.12-11.17-9.84-15.87C405.78,290.55,404.24,295.05,402.67,301.72Z"/><path d="M397.77,306.34V296.2c3.52,1.38,6.7,3.42,7.88,5.69,1.31-5.63,3.83-8.11,7-11.52,3.14,3.41,5.25,5.89,6.56,11.52,1.17-2.27,4.35-4.31,7.87-5.69v10.14Z" fill="#fff"/><path d="M427.79,307.06H397.05V295.14l1,.39a18.6,18.6,0,0,1,7.31,4.67c1.36-4.51,3.64-7,6.23-9.76l1.05-1.13.53.57c3,3.24,5,5.67,6.33,10.31a18.78,18.78,0,0,1,7.31-4.66l1-.39Zm-29.3-1.44h27.85v-8.35c-3.22,1.41-5.62,3.22-6.51,5l-.9,1.74-.44-1.91c-1.2-5.12-3-7.51-5.86-10.62-2.85,3.07-5.09,5.5-6.28,10.62l-.44,1.91-.9-1.74c-.89-1.72-3.29-3.54-6.52-5Z"/><path d="M141.08,351.52v9.26H458.92v-9.26Zm-5.75,9.34v12.08H464.67V360.86Zm329.34,12.08L135.33,373l-9.63-.09v15.93H474.3V372.94ZM116,389v18.77H484V389Zm368,18.77v0H116v0h-9.7V426.5H493.7V407.74Z" fill="#fff"/><path d="M494.42,427.22H105.59V407h9.7V388.25H125v-16l9.63.09V360.14h5.75V350.8H459.64v9.34h5.75v12.08H475v16h9.7V407h9.7ZM107,425.78H493V408.46H107Zm9.7-18.76H483.28V389.7H116.72Zm9.69-18.87H473.58V373.66h-8.91l-329.34.09-8.91-.08Zm9.63-15.93H464V361.58H136.05Zm5.75-12.16H458.2v-7.82H141.8Z"/><path d="M175.58,351.56h24v74.91h-24Z" fill="#fff"/><path d="M200.37,427.25H174.8V350.78h25.57Zm-24-1.57H198.8V352.35H176.36Z"/><path d="M180.89,351.56h13.37v74.91H180.89Z" fill="#fff"/><path d="M195.05,427.25H180.11V350.78h14.94Zm-13.38-1.56h11.81V352.35H181.67Z"/><path d="M287.58,351.56h24v74.91h-24Z" fill="#fff"/><path d="M312.38,427.25H286.8V350.78h25.58Zm-24-1.57h22.44V352.35H288.37Z"/><path d="M293.06,351.56h13.38v74.91H293.06Z" fill="#fff"/><path d="M307.22,427.25H292.28V350.78h14.94Zm-13.38-1.56h11.81V352.35H293.84Z"/><path d="M400.25,351.56h24v74.91h-24Z" fill="#fff"/><path d="M425,427.25H399.47V350.78H425Zm-24-1.57h22.44V352.35H401Z"/><path d="M405.56,351.56h13.38v74.91H405.56Z" fill="#fff"/><path d="M419.72,427.25H404.78V350.78h14.94Zm-13.38-1.56h11.81V352.35H406.34Z"/><path d="M306,417.79H293.12v-1.44H306Zm113.16,0H405.32v-1.44h13.87Zm-224.67,0H180.65v-1.44h13.87ZM306,408.41H293.12V407H306Zm113.16,0H405.32V407h13.87Zm-224.67,0H180.65V407h13.87ZM306,399H293.12v-1.44H306Zm113.16,0H405.32v-1.44h13.87Zm-224.67,0H180.65v-1.44h13.87Zm224.67-9.37H405.32v-1.44h13.87Zm-113.16,0H293.12v-1.44H306Zm-111.51,0H180.65v-1.44h13.87Zm224.67-9.38H405.32v-1.44h13.87Zm-224.67,0H180.65v-1.44h13.87Zm111.51,0H293.12v-1.44H306Zm113.16-9.37H405.32v-1.44h13.87Zm-224.67,0H180.65v-1.44h13.87Zm111.51,0H293.12v-1.44H306Zm113.16-9.37H405.32v-1.44h13.87Zm-224.67,0H180.65v-1.44h13.87Zm111.51,0H293.12v-1.44H306ZM445,344.66H155.37v-1.44H445Z"/></g></svg>