<?xml version="1.0" encoding="utf-8"?>
<!-- Generator: Adobe Illustrator 27.0.0, SVG Export Plug-In . SVG Version: 6.00 Build 0)  -->
<svg version="1.1" id="Layer_1" xmlns="http://www.w3.org/2000/svg" xmlns:xlink="http://www.w3.org/1999/xlink" x="0px" y="0px"
	 viewBox="0 0 600 600" style="enable-background:new 0 0 600 600;" xml:space="preserve">
<style type="text/css">
	.st0{clip-path:url(#SVGID_00000163792183273977325390000015672412009561880744_);}
	.st1{fill:#032EA1;}
	.st2{fill:#E00025;}
	.st3{fill:#FFFFFF;}
</style>
<g>
	<defs>
		<circle id="SVGID_1_" cx="300" cy="300" r="300"/>
	</defs>
	<clipPath id="SVGID_00000015329080966648895450000014050712740467214237_">
		<use xlink:href="#SVGID_1_"  style="overflow:visible;"/>
	</clipPath>
	<g style="clip-path:url(#SVGID_00000015329080966648895450000014050712740467214237_);">
		<rect x="-168.8" class="st1" width="937.5" height="150"/>
		<rect x="-168.8" y="450" class="st1" width="937.5" height="150"/>
		<rect x="-168.8" y="150" class="st2" width="937.5" height="300"/>
		<path class="st3" d="M215.5,282.8h170.7v65.7H215.5V282.8z"/>
		<path d="M386.2,349.2H215.5l-0.7-0.7v-65.7l0.7-0.7h170.7l0.7,0.7v65.7L386.2,349.2z M216.2,347.8h169.3v-64.2H216.2L216.2,347.8z
			"/>
		<path class="st3" d="M377.4,319.1h5.4v24.7h-5.4V319.1z M215.5,306.8h170.7v7.6H215.5L215.5,306.8z M215.5,296.5h170.7v6.7H215.5
			L215.5,296.5z"/>
		<path d="M382.8,344.5h-5.4l-0.7-0.7v-24.7l0.7-0.7h5.4l0.7,0.7v24.7L382.8,344.5z M378.1,343.1h3.9v-23.3h-3.9V343.1z
			 M386.2,315.2H215.5l-0.7-0.7v-7.6l0.7-0.7h170.7l0.7,0.7v7.6L386.2,315.2z M216.2,313.8h169.3v-6.2H216.2L216.2,313.8z
			 M386.2,303.9H215.5l-0.7-0.7v-6.7l0.7-0.7h170.7l0.7,0.7v6.7L386.2,303.9z M216.2,302.5h169.3v-5.3H216.2L216.2,302.5z"/>
		<path class="st3" d="M215.5,286.1h170.7v6.5H215.5V286.1z"/>
		<path d="M386.2,293.4H215.5l-0.7-0.7v-6.5l0.7-0.7h170.7l0.7,0.7v6.5L386.2,293.4z M216.2,292h169.3v-5.1H216.2V292z"/>
		<path class="st3" d="M260.4,319.1h5.4v24.7h-5.4V319.1z M333.9,319.1h5.4v24.7h-5.4V319.1z M216.8,319.1h5.4v24.7h-5.4V319.1z
			 M227.4,319.1h5.4v24.7h-5.4V319.1z M238.6,319.1h5.4v24.7h-5.4L238.6,319.1z M249.9,319.1h5.4v24.7h-5.4V319.1z M344.1,319.1h5.4
			v24.7h-5.4V319.1z M355.4,319.1h5.4v24.7h-5.4V319.1z M366.6,319.1h5.4v24.7h-5.4V319.1z"/>
		<path d="M372,344.5h-5.4l-0.7-0.7v-24.7l0.7-0.7h5.4l0.7,0.7v24.7L372,344.5z M367.3,343.1h3.9v-23.3h-3.9V343.1z M360.8,344.5
			h-5.4l-0.7-0.7v-24.7l0.7-0.7h5.4l0.7,0.7v24.7L360.8,344.5z M356.1,343.1h3.9v-23.3h-3.9L356.1,343.1z M349.5,344.5h-5.4
			l-0.7-0.7v-24.7l0.7-0.7h5.4l0.7,0.7v24.7L349.5,344.5z M344.8,343.1h3.9v-23.3h-3.9V343.1z M339.3,344.5h-5.4l-0.7-0.7v-24.7
			l0.7-0.7h5.4l0.7,0.7v24.7L339.3,344.5z M334.6,343.1h3.9v-23.3h-3.9V343.1z M265.8,344.5h-5.4l-0.7-0.7v-24.7l0.7-0.7h5.4
			l0.7,0.7v24.7L265.8,344.5z M261.1,343.1h3.9v-23.3h-3.9V343.1z M255.3,344.5h-5.4l-0.7-0.7v-24.7l0.7-0.7h5.4l0.7,0.7v24.7
			L255.3,344.5z M250.6,343.1h3.9v-23.3h-3.9V343.1z M244,344.5h-5.4l-0.7-0.7v-24.7l0.7-0.7h5.4l0.7,0.7v24.7L244,344.5z
			 M239.3,343.1h3.9v-23.3h-3.9V343.1z M232.8,344.5h-5.4l-0.7-0.7v-24.7l0.7-0.7h5.4l0.7,0.7v24.7L232.8,344.5z M228.1,343.1h3.9
			v-23.3h-3.9V343.1z M222.2,344.5h-5.4l-0.7-0.7v-24.7l0.7-0.7h5.4l0.7,0.7v24.7L222.2,344.5z M217.5,343.1h3.9v-23.3h-3.9V343.1z"
			/>
		<path class="st3" d="M148.7,351.9c3.2-1.7,5.5-4.6,6.6-8H445c1.1,3.4,3.5,6.3,6.6,8H148.7z"/>
		<path d="M451.6,352.6H148.7l-0.3-1.4c3-1.6,5.2-4.3,6.3-7.5l0.1-0.5h290.7l0.1,0.5c1.1,3.2,3.3,5.9,6.3,7.5L451.6,352.6z
			 M151.1,351.2h298.1c-2.2-1.7-3.8-4-4.8-6.5H155.9C155,347.2,153.3,349.5,151.1,351.2z"/>
		<path class="st3" d="M296.5,182.8c0,0-0.2-6.2,3.4-6.2s3.4,6.2,3.4,6.2H296.5z M277.7,264.6v-8.3c-0.1-4.2-4.1-4.5-4.3-7.5
			c0,0-0.5-4.5,0.7-6.6c1.6,6.1,4.6,5,4.6,2.5c0-2.2-1.7-4.2-5.1-9.5c-1.1-1.7-0.4-7,1.1-8.9c0.6,4.6,1.3,6.8,3.3,6.8
			c1.2,0,2.2-0.8,2.2-3.1c0-2.9-2-4.4-3-7.1c-1.1-2.8-0.5-5.9,1.5-8.1c0.8,4.6,0.6,6.4,2.6,6.4c4.1-1.3,0-7.2-0.9-8.7
			c-1-1.7,1.4-5.2,1.4-5.2c1.3,4,1.7,4.4,3.1,4c1.8-0.5,1.5-3.1-0.6-5.2c-1.4-1.3-1.2-3.3,0.2-4.9c1.5,2.9,3.3,2.7,3.5,1l-1.2-6.6
			h25.9l-1.2,6.3c-0.4,1.8,2.1,2.2,3.6-0.8c1.5,1.6,1.6,3.6,0.2,4.9c-2.1,2.1-2.4,4.7-0.6,5.2c1.4,0.4,1.8,0,3.1-4
			c1.2,1.4,1.7,3.3,1.4,5.2c-0.9,1.5-4.9,7.4-0.9,8.7c2,0,1.8-1.8,2.6-6.4c2.1,2.1,2.7,5.3,1.5,8.1c-1,2.7-3,4.1-3,7.1
			c0,2.3,1,3.1,2.2,3.1c2,0,2.7-2.2,3.3-6.8c1.5,1.9,2.2,7.2,1.1,8.9c-3.4,5.3-5.1,7.3-5.1,9.5c0,2.5,3,3.6,4.6-2.5
			c1.2,2.1,0.7,6.6,0.7,6.6c-0.1,3-4.1,3.3-4.3,7.5v8.3L277.7,264.6z M288.6,195.6l-0.6-4.7h23.8l-0.6,4.7H288.6z M290.1,190.8
			l-0.5-3.9H310l-0.5,3.9H290.1z M293.4,186.8L293,183h13.6l-0.3,3.9H293.4z M342.9,351.9c-3-1.2-7.5-4.4-7.5-7.6v-36.5l4-5h-79.2
			l3.8,5v36.4c0,3.2-3,6.4-6.1,7.6L342.9,351.9z"/>
		<path d="M258,352.6l-0.2-1.4c2.7-1,5.6-4,5.6-6.9v-36.2l-4.5-6h82.1l-4.7,6v36.2c0,2.8,4.1,5.8,7,6.9l-0.3,1.4H258z M261.7,303.6
			l3.1,4.1v36.7c0,2.7-1.8,5.2-4,6.9H340c-2.6-1.7-5.2-4.2-5.2-6.9v-36.7l3.2-4.1L261.7,303.6z M322.7,265.3H277v-9
			c-0.1-1.9-1.1-2.9-2.1-3.9s-2-1.9-2.1-3.6c0-0.1-0.5-4.7,0.8-7l0.9-1.5l0.5,1.7c0.9,3.2,2,4,2.5,3.9s0.7-0.6,0.7-1.3
			c0-1.6-1.1-3.2-3.3-6.5l-1.7-2.6c-1.3-1.9-0.6-7.6,1.2-9.7l1.1-1.3l0.2,1.7c0.6,4.6,1.2,6.2,2.5,6.2c0.4,0,1.5,0,1.5-2.4
			c-0.1-1.4-0.6-2.8-1.5-4c-0.6-0.9-1-1.8-1.4-2.8c-1.2-3-0.5-6.5,1.7-8.8l1-0.9l0.2,1.3c0.2,0.9,0.3,1.7,0.4,2.4
			c0.4,2.8,0.6,3.3,1.4,3.3c0.5-0.1,0.9-0.5,1.1-0.9c0.6-1.7-1.3-4.8-2.1-6.2l-0.3-0.5c-1.2-2.1,1.1-5.6,1.4-6l0.8-1.2l0.5,1.4
			c1.2,3.8,1.5,3.7,2.2,3.5c0.3-0.1,0.5-0.3,0.6-0.6c0.2-0.7-0.2-2.1-1.5-3.4c-1.6-1.6-1.5-4,0.2-5.9l0.7-0.8l0.5,0.9
			c0.7,1.4,1.5,1.9,1.8,1.8c0.2,0,0.3-0.3,0.3-0.5l-1.4-7.3h1.7l-0.6-4.8h2.2l-0.5-3.9h3.8l-0.4-4h3.5c0-1.2,0.3-3.9,1.7-5.3
			c1.2-1.3,3.3-1.4,4.6-0.2c0.1,0.1,0.1,0.1,0.2,0.2c1.4,1.5,1.6,4.1,1.7,5.3h3.5l-0.4,4h3.8l-0.5,3.9h2.2l-0.6,4.8h1.7l-1.5,7.2
			c0,0.2-0.1,0.5,0.1,0.5c0.4,0.1,1.4-0.3,2.1-1.8l0.6-0.9l0.7,0.8c1.7,1.9,1.8,4.3,0.2,5.9c-1.3,1.3-1.7,2.7-1.5,3.4
			c0.1,0.3,0.3,0.5,0.6,0.6c0.8,0.2,1,0.3,2.2-3.5l0.4-1.2l0.8,0.9c1.4,1.6,1.9,3.8,1.5,5.9l-0.1,0.2l-0.3,0.5
			c-0.8,1.2-2.8,4.5-2.1,6.2c0.2,0.5,0.6,0.8,1.1,0.9c0.8,0,1-0.5,1.4-3.3c0.1-0.7,0.2-1.5,0.4-2.4l0.2-1.3l1,0.9
			c2.3,2.3,2.9,5.8,1.7,8.8c-0.4,1-0.9,1.9-1.5,2.8c-0.9,1.2-1.4,2.6-1.5,4c0,2.4,1.1,2.4,1.5,2.4c1.3,0,2-1.6,2.5-6.2l0.2-1.7
			l1.1,1.3c1.8,2.2,2.4,7.8,1.2,9.7c-0.6,1-1.2,1.9-1.7,2.6c-2.2,3.3-3.2,4.9-3.2,6.4c0,0.7,0.3,1.2,0.7,1.3s1.6-0.7,2.5-3.9
			l0.5-1.7l0.9,1.5c1.3,2.2,0.8,6.9,0.8,7.1c-0.1,1.6-1.1,2.6-2.1,3.5s-2.1,1.9-2.1,3.9L322.7,265.3z M278.5,263.9h42.8v-7.6
			c0.1-2,1-3.8,2.6-4.9c0.9-0.8,1.6-1.5,1.6-2.6c0.1-1.4,0.1-2.8,0-4.2c-1.2,2.7-2.7,2.9-3.3,2.8c-1.2-0.3-2.1-1.5-1.9-2.7
			c0-2,1.2-3.7,3.5-7.2c0.5-0.8,1.1-1.6,1.7-2.6s0.5-3.9-0.1-6.1c-0.5,3-1.4,5.1-3.6,5.1c-0.9,0-2.9-0.4-2.9-3.8
			c0.1-1.7,0.7-3.4,1.7-4.8c0.5-0.8,1-1.6,1.3-2.5c0.8-2,0.6-4.2-0.4-6.1c0,0.3-0.1,0.6-0.1,0.8c-0.4,2.8-0.7,4.5-2.9,4.5h-0.2
			c-0.9-0.2-1.7-0.9-2.1-1.8c-0.9-2.3,1.2-5.8,2.3-7.4l0.2-0.4c0.2-1.1,0.1-2.3-0.5-3.3c-0.9,2.7-1.6,3.5-3.5,3
			c-0.8-0.2-1.4-0.8-1.6-1.6c-0.4-1.4,0.4-3.3,1.9-4.8c0.8-0.8,1-2.1,0.3-3.1c-1.1,1.5-2.4,1.9-3.3,1.5c-0.9-0.3-1.3-1.3-1.1-2.2
			l1.1-5.5h-24.2l1,5.8v0.1c0,0.9-0.6,1.6-1.5,1.8c-1,0.2-2-0.4-2.8-1.6c-0.6,1-0.5,2.3,0.3,3.1c1.5,1.5,2.3,3.4,1.9,4.8
			c-0.2,0.8-0.8,1.4-1.6,1.6c-1.8,0.5-2.5-0.4-3.5-2.9c-0.5,1.1-0.9,2.4-0.5,3.1l0.3,0.5c1,1.6,3.1,5.1,2.3,7.4
			c-0.4,0.9-1.1,1.6-2.1,1.8h-0.2c-2.2,0-2.5-1.7-2.9-4.5c0-0.3-0.1-0.6-0.1-0.9c-1,1.9-1.2,4.1-0.4,6.1c0.4,0.9,0.8,1.7,1.3,2.5
			c1,1.4,1.6,3.1,1.7,4.8c0,3.4-2,3.8-2.9,3.8c-2.2,0-3.1-2.1-3.6-5.1c-0.7,2.2-0.8,5.1-0.1,6.1s1.2,1.8,1.7,2.6
			c2.3,3.5,3.5,5.3,3.5,7.3c0.1,1.3-0.7,2.4-1.9,2.7c-0.7,0.1-2.1-0.1-3.3-2.8c-0.2,1.4-0.2,2.8,0,4.2c0,1.1,0.8,1.8,1.6,2.6
			c1.6,1.2,2.5,3,2.6,4.9L278.5,263.9z M289.2,194.9h21.3l0.4-3.2h-22.2L289.2,194.9z M290.8,190.1h18.1l0.3-2.4h-18.8L290.8,190.1z
			 M294.1,186.1h11.6l0.2-2.4h-12L294.1,186.1z M297.2,182.1h5.3c-0.1-1.2-0.4-3.2-1.3-4.2c-0.7-0.8-1.8-0.8-2.6-0.1
			c0,0-0.1,0.1-0.1,0.1C297.5,178.9,297.2,180.9,297.2,182.1L297.2,182.1z"/>
		<path class="st3" d="M274.3,319.1h5.4v24.7h-5.4V319.1z M319.8,319.1h5.4v24.7h-5.4L319.8,319.1z"/>
		<path d="M325.2,344.5h-5.4l-0.7-0.7v-24.7l0.7-0.7h5.4l0.7,0.7v24.7L325.2,344.5z M320.5,343.1h3.9v-23.3h-3.9V343.1z
			 M279.7,344.5h-5.4l-0.7-0.7v-24.7l0.7-0.7h5.4l0.7,0.7v24.7L279.7,344.5z M275,343.1h4v-23.3h-4V343.1z"/>
		<path class="st3" d="M258.8,261.4v41.5h81v-8.9l0.1-32.5c-1.9,0.7-3.4,2.3-3.9,4.3v17.7H263v-17.7
			C262.3,263.7,260.8,262.1,258.8,261.4L258.8,261.4z"/>
		<path d="M340.6,303.6h-82.5v-43.3l1,0.4c2.2,0.8,3.8,2.6,4.6,4.8v0.2v16.9h71.7v-16.9c0.5-2.3,2.1-4.2,4.4-5l1-0.4L340.6,303.6z
			 M259.6,302.1h79.6v-8.2l0.1-31.4c-1.2,0.7-2.1,1.9-2.5,3.3V284h-74.6v-18.3c-0.5-1.4-1.4-2.5-2.7-3.3L259.6,302.1z"/>
		<path class="st3" d="M328.9,351.9c-2.6-1.2-8.4-4.4-8.4-7.6v-40.8c0.6-2.3,3.6-3.6,5.6-5h-53.7c2.6,1.4,5.4,2.5,6.4,5v40.8
			c0,3.2-4.6,6.4-7.2,7.6L328.9,351.9z"/>
		<path d="M271.6,352.6l-0.3-1.4c2.7-1.2,6.8-4.2,6.8-7v-40.6c-0.8-1.9-2.8-2.9-5-4l-1.1-0.6l0.3-1.4h56l-1.8,1.3
			c-0.5,0.3-1,0.7-1.5,1c-1.7,1-3.4,2.1-3.8,3.5v40.7c0,2.5,4.8,5.5,8,7l-0.3,1.4L271.6,352.6z M275.3,299.2c1.8,0.8,3.3,2.2,4.1,4
			l0,0.3v40.8c0,2.6-2.6,5.2-5.1,6.9h51.5c-2.6-1.5-6.1-4.1-6.1-6.9v-41c0.5-1.8,2.2-3.1,3.9-4.1L275.3,299.2z"/>
		<path class="st3" d="M336.1,298.9v-29.4h-7.4v-2.9h-58.3v2.9h-7.4v29.4H336.1z M317.2,351.9c-2.6-1.2-6.4-4.4-6.4-7.6v-34.8
			l2.1-3.2h-26.5l2.1,3.2v34.8c0,3.2-3.8,6.4-6.4,7.6H317.2z"/>
		<path d="M282.2,352.6l-0.3-1.4c2.5-1.1,6-4.2,6-7v-34.6l-2.8-4.1h29.2l-2.8,4.1v34.6c0,2.8,3.5,5.8,6,7l-0.3,1.4H282.2z
			 M287.8,307l1.5,2.2v35c0,2.7-2.2,5.2-4.5,6.9h29.8c-2.3-1.7-4.5-4.2-4.5-6.9v-35l1.5-2.2H287.8z M336.8,299.6h-74.5v-30.8h7.4
			V266h59.7v2.9h7.4L336.8,299.6z M263.8,298.2h71.5v-27.9H328v-2.9h-56.8v2.9h-7.4L263.8,298.2z"/>
		<path class="st3" d="M293,306.3h13.5v45.6H293V306.3z"/>
		<path d="M307.2,352.6h-14.9v-47h14.9L307.2,352.6z M293.8,351.2h12v-44.1h-12V351.2z"/>
		<path class="st3" d="M313.5,296.3c0-3,8.8-3.1,13.2-5.7h-53.9c4.5,2.5,13,2.8,13,5.7l1.8,5.8L310,303L313.5,296.3z"/>
		<path d="M310,303.8l-22.3-0.9l-0.6-0.5l-1.9-6c0-1.2-3.1-2-5.8-2.7c-2.4-0.5-4.7-1.3-6.8-2.4l0.4-1.3h53.9l0.4,1.3
			c-2.2,1.1-4.5,1.9-6.9,2.4c-2.8,0.7-6,1.5-6,2.7l-0.1,0.3l-3.5,6.7L310,303.8z M288.2,301.4l21.4,0.9l3.2-6.2c0.2-2.2,3.4-3,7-3.9
			c1.1-0.3,2.2-0.5,3.2-0.9h-46.6c1,0.3,2.1,0.6,3.2,0.9c3.6,1,6.8,1.8,6.9,4L288.2,301.4z"/>
		<path class="st3" d="M324.1,264.6c0-7.4,0.3-10.2,2.6-10.2v23.4c-5.5,2-9.5,9.1-9.5,9.1h-34.8c0,0-4-7.1-9.5-9.1v-23.4
			c2.8,0,2.8,3,2.8,10.2H324.1z M326.6,261.6c0-8.4,7.3-9.4,7.3-9.4v7.5c-2.8-0.1-4.1,2.4-4.1,6.1s2.2,3.8,2.2,3.8v21.3h-5.4
			L326.6,261.6z"/>
		<path d="M332.8,291.5h-6.8v-12.7c-4.7,2.3-8.1,8.3-8.1,8.3l-0.2,0.4h-35.7l-0.2-0.4c0-0.1-3.9-6.9-9.1-8.8l-0.5-0.2v-24.6h0.7
			c3.4,0,3.5,3.2,3.5,10.2h47c0-6.5,0.3-10.2,3.3-10.2h0.7v2.1c1.5-2.3,3.8-3.9,6.5-4.4l0.8-0.1v9.1h-0.8c-0.7-0.1-1.5,0.2-2,0.7
			c-0.9,0.8-1.4,2.5-1.4,4.6c0,2.9,1.5,3,1.5,3l0.7,0v0.7L332.8,291.5z M327.4,290.1h4v-20c-0.9-0.3-2.2-1.3-2.2-4.3
			c0-2.6,0.6-4.6,1.8-5.7c0.6-0.6,1.4-1,2.3-1.1v-5.9c-1.8,0.5-5.8,2.4-5.8,8.5L327.4,290.1z M282.8,286.2h34
			c0.9-1.5,4.4-6.9,9.2-8.9v-21.9c-0.9,0.7-1.1,3.2-1.1,9.2v0.7h-49.9v-0.7c0-6.2-0.1-8.7-1.4-9.3v22
			C278.4,279.3,281.9,284.7,282.8,286.2L282.8,286.2z"/>
		<path class="st3" d="M272.9,261.6c0-8.4-7.3-9.4-7.3-9.4v7.5c2.8-0.1,4.1,2.4,4.1,6.1s-2.2,3.8-2.2,3.8v21.3h5.4V261.6z"/>
		<path d="M273.6,291.5h-6.8v-22.7h0.7c0,0,1.5-0.1,1.5-3c0-2.1-0.5-3.8-1.4-4.6c-0.5-0.5-1.3-0.8-2-0.7h-0.8v-9.1l0.8,0.1
			c0.1,0,7.9,1.1,7.9,10.1L273.6,291.5z M268.2,290.1h4v-28.5c0-6.1-4-8-5.8-8.5v5.9c0.9,0.1,1.7,0.5,2.3,1.1
			c1.2,1.1,1.8,3.1,1.8,5.7c0,3-1.4,4-2.2,4.3L268.2,290.1z"/>
		<path d="M322.6,247.3h-45.6v-1.2h45.6V247.3z M322.3,233.8H278v-1.2h44.3L322.3,233.8z M318.5,221.9h-37.4v-1.2h37.4L318.5,221.9z
			 M315.6,212.1h-31.4V211h31.4L315.6,212.1z M312.9,204.1h-25.7v-1.2h25.7V204.1z"/>
		<path d="M314,301.7h-28.5v-10h-22.4v-1.4h73v1.4H314V301.7z M287,300.2h25.6v-8.5H287V300.2z"/>
		<path class="st3" d="M282.9,269c4.5,5.4,4.1,14.5,4,19.9h26c0-5.4-0.5-14.5,4-19.9H282.9z M297.5,207.3l-3.6-1.8v-5.2
			c1.5,0.4,3.1,0.6,3.2,2.9c0.5-3.3,1.4-3.1,2.9-4.4c1.4,1.3,2.4,1.1,2.9,4.4c0.2-2.3,1.8-2.5,3.3-2.9v5.2l-3.6,1.8H297.5z"/>
		<path d="M313.6,289.6h-27.5v-1.8c0.1-5.4,0.2-13.5-3.9-18.4l-1-1.2h37.1l-1,1.2c-4,4.9-3.9,13-3.9,18.4L313.6,289.6z M287.6,288.1
			h24.5v-0.3c-0.1-5.2-0.2-12.9,3.3-18.2h-31.2c3.5,5.3,3.4,13,3.3,18.2L287.6,288.1z M297.3,208l-4.1-2.1v-6.6l1.4,0.4
			c0.9,0.2,1.7,0.6,2.4,1.2c0.4-0.8,1-1.5,1.7-2c0.3-0.2,0.6-0.4,0.8-0.6l0.5-0.4l0.5,0.4c0.3,0.2,0.5,0.4,0.8,0.6
			c0.8,0.5,1.4,1.2,1.7,2c0.7-0.6,1.5-1,2.4-1.2l1.4-0.4v6.7l-4.1,2.1L297.3,208z M294.6,205l3,1.6h4.7l3-1.6v-3.9
			c-1.1,0.4-1.7,0.7-1.8,2l-1.4,0.1c-0.4-2.3-0.8-2.6-1.7-3.3l-0.5-0.3c-0.1,0.1-0.3,0.2-0.5,0.3c-0.9,0.6-1.4,1-1.7,3.3l-1.4-0.1
			c-0.1-1.3-0.7-1.7-1.8-2L294.6,205z"/>
		<path class="st3" d="M297.2,215.9l-5.9-4.1V207c2.1,0.5,4.4,0.7,4.6,3.2c0.7-3.6,2-5.5,4.1-6.9c2,1.4,3.4,3.3,4.1,6.9
			c0.2-2.6,2.6-2.7,4.6-3.2v4.8l-5.9,4.1L297.2,215.9z"/>
		<path d="M303,216.6h-6l-6.4-4.4v-6.1l1.5,0.4c1.3,0.1,2.6,0.7,3.6,1.6c0.6-2.2,2-4,3.8-5.3l0.4-0.3l0.4,0.3
			c1.9,1.3,3.2,3.1,3.8,5.3c1-0.9,2.3-1.4,3.6-1.6l1.5-0.4v6.1L303,216.6z M297.4,215.1h5.1l5.4-3.7v-3.6c-1.9,0.4-3.1,0.8-3.2,2.4
			l-1.4,0.1c-0.6-3-1.6-4.8-3.4-6.2c-1.8,1.4-2.8,3.2-3.4,6.2l-1.4-0.1c-0.1-1.6-1.3-2-3.2-2.4v3.6L297.4,215.1z"/>
		<path class="st3" d="M296.8,229.3l-6.8-6v-7.1c2.4,0.7,5.1,1,5.3,4.7c0.8-5.3,2.3-8.1,4.7-10.2c2.4,2.1,3.9,4.8,4.7,10.2
			c0.3-3.7,2.9-4,5.3-4.7v7.1l-6.8,6L296.8,229.3z M309.4,237.2l-6.2,8.5h-7l-6.1-8.5H309.4z M286.6,251.5c3.1,1.7,4.2,5,4.5,11.3
			h17.3c0.3-6.3,1.5-9.6,4.5-11.3L286.6,251.5z"/>
		<path d="M309.1,263.6h-18.7v-0.7c-0.3-6.4-1.5-9.3-4.2-10.7l0.4-1.4H313l0.4,1.4c-2.7,1.5-3.8,4.4-4.2,10.7L309.1,263.6z
			 M291.8,262.1h16c0.3-4.3,1-7.7,3.1-9.9h-22.2C290.8,254.4,291.5,257.8,291.8,262.1L291.8,262.1z M303.6,246.5h-7.7l-7.2-10h22.1
			L303.6,246.5z M296.6,245h6.2l5.2-7h-16.5L296.6,245z M296.5,230l-7.2-6.4v-8.4l0.9,0.3l0.8,0.2c1.5,0.4,3.2,0.9,4.2,2.3
			c0.6-3,2.1-5.8,4.4-7.9l0.5-0.4l0.5,0.4c2.3,2.1,3.8,4.8,4.4,7.9c1-1.5,2.7-1.9,4.2-2.3l0.8-0.2l0.9-0.3v8.4l-7.2,6.4L296.5,230z
			 M290.7,223l6.4,5.6h5.9l6.4-5.6v-5.8c-2.1,0.6-3.7,1.1-3.9,3.8l-1.4,0.1c-0.7-4.5-1.9-7.2-4-9.3c-2.1,2.1-3.3,4.8-4,9.3l-1.4-0.1
			c-0.2-2.8-1.8-3.3-3.9-3.8L290.7,223z"/>
		<path class="st3" d="M313.2,237.2v-8.6c-2.6,0.6-4.7,2.4-5.7,4.9c0-2.8-3.7-9.4-7.8-12.6c-4.1,3.6-7.9,9.6-7.8,12.6
			c-0.9-2.5-3.1-4.3-5.7-4.9v8.6H313.2z"/>
		<path d="M313.2,238h-27l-0.7-0.7v-8.6l0.9-0.7c2,0.5,3.8,1.7,5.1,3.4c1.1-3.5,4.5-8.1,7.7-11h0.9c3.5,2.9,6.1,6.7,7.7,11
			c1.3-1.7,3.1-2.9,5.2-3.4l0.9,0.7v8.6L313.2,238z M287,236.5h25.5v-6.8c-2,0.7-3.5,2.2-4.3,4.1l-1.4-0.2c0-2.5-3.4-8.5-7.1-11.7
			c-3.8,3.6-7.2,9-7.1,11.7l-1.4,0.2c-0.7-1.9-2.3-3.5-4.3-4.1L287,236.5z"/>
		<path class="st3" d="M314.5,251.5V243c-3.2,0.8-5.3,2.5-6.2,4.9c0-2.8-4.1-9.4-8.6-12.6c-4.5,3.6-8.6,9.6-8.6,12.6
			c-0.8-2.2-3-4.1-6.2-4.9v8.6L314.5,251.5z"/>
		<path d="M314.5,252.2H285l-0.7-0.7V243l0.9-0.7c2.2,0.5,4.2,1.7,5.7,3.4c1.2-3.5,4.9-8.2,8.5-11.1h0.9c3.8,2.9,6.7,6.8,8.5,11.2
			c1.4-1.8,3.5-3.1,5.7-3.5l0.9,0.7v8.6L314.5,252.2z M285.7,250.8h28.1v-6.9c-2.2,0.6-3.9,2.1-4.8,4.2l-1.4-0.3
			c0-2.5-3.7-8.5-7.8-11.7c-4.2,3.6-7.9,9.1-7.9,11.7l-1.4,0.3c-0.9-2.1-2.7-3.6-4.8-4.2V250.8z"/>
		<path class="st3" d="M318.1,269.1v-9.9c-3.2,1-5.9,3-7.7,5.7c0-5.3-6-13.5-10.6-16.1c-4.7,2.7-10.6,11.1-10.6,16.1
			c-1.3-1.7-3.7-4.7-7.7-5.7v9.9H318.1z"/>
		<path d="M318.1,269.8h-36.8l-0.7-0.7v-9.9l0.9-0.7c2.8,0.8,5.2,2.4,7,4.6c1.1-5.3,6.5-12.5,10.8-15h0.7c4.3,2.5,9.7,9.5,10.8,15
			c1.8-2.2,4.3-3.8,7-4.6l0.9,0.7v9.9L318.1,269.8z M282.1,268.4h35.3v-8.2c-2.6,1-4.9,2.8-6.4,5.2l-1.3-0.4
			c0-4.8-5.5-12.5-9.9-15.3c-4.4,2.8-9.9,10.6-9.9,15.3l-1.3,0.4c-1.6-2.3-3.8-4.1-6.4-5.2L282.1,268.4z"/>
		<path class="st3" d="M316,291v-10.2c-3.5,1.4-4.6,4.8-5.7,7.1c0.4-10.3-5.8-21.3-10.5-24.1c-4.7,2.8-11.1,14.1-10.5,24.1
			c-1.1-2.3-2.2-5.7-5.7-7.1V291H316z"/>
		<path d="M316,291.7h-32.5l-0.7-0.7v-10.1l1-0.7c2.1,0.9,3.8,2.5,4.7,4.6c0.7-9.7,6.6-19.1,10.9-21.6h0.7
			c4.3,2.5,10.1,11.8,10.8,21.6c0.9-2.1,2.6-3.7,4.8-4.6l1,0.7V291L316,291.7z M284.3,290.3h31V282c-2,1.2-3,3.3-3.8,5.2
			c-0.2,0.4-0.3,0.7-0.5,1l-1.4-0.3c0.4-10-5.5-20.3-9.8-23.3c-4.4,3-10.3,13.7-9.8,23.3l-1.4,0.4c-0.2-0.4-0.4-0.7-0.5-1.1
			c-0.8-1.8-1.8-3.9-3.8-5.1L284.3,290.3z"/>
		<path class="st3" d="M313.5,306.3v-10.1c-3.7,0.9-3.9,2.2-5.1,4.5c0.4-6.1-3.9-13.1-8.7-16c-4.8,2.8-9.1,9.8-8.7,16
			c-1.2-2.3-1.3-3.6-5.1-4.5v10.1L313.5,306.3z"/>
		<path d="M314.2,307.1h-28.9v-11.8l0.9,0.2c2.5,0.6,3.6,1.4,4.3,2.5c0.9-5.7,4.1-10.7,8.9-13.8l0.4-0.2l0.4,0.2
			c4.8,3.2,8,8.2,8.9,13.9c0.7-1.1,1.8-1.9,4.3-2.5l0.9-0.2V307.1z M286.7,305.6h26v-8.5c-2.1,0.7-2.6,1.5-3.3,3.1L309,301l-1.4-0.4
			c0.4-5.8-3.7-12.3-7.9-15.1c-4.2,2.7-8.4,9.3-8,15.1l-1.4,0.4c-0.2-0.3-0.3-0.6-0.4-0.9c-0.7-1.5-1.1-2.4-3.3-3L286.7,305.6z"/>
		<path class="st3" d="M155.4,343.9v-30.7c-1-3.9-4.3-7.4-6.8-8v-27l5.6,3l6.4,28.2v34.4H155.4z"/>
		<path d="M161.3,344.7h-6.6v-31.3c-1-3.6-4.1-6.8-6.3-7.5l-0.5-0.1V277l7,3.8l6.5,28.7L161.3,344.7z M156.1,343.2h3.8v-33.6
			l-6.3-27.8l-4.3-2.3v25.3c2.6,1,5.8,4.5,6.8,8.4v0.2L156.1,343.2z"/>
		<path class="st3" d="M155.4,344.1v-30.8c-1-3.9-4.3-7.4-6.8-8v-28.9c3.8,0,5.6,4.9,5.6,4.9l6.4,28.2v34.3L155.4,344.1z"/>
		<path d="M154.6,344.8v-31.4c-1-3.6-4.1-6.8-6.3-7.5l-0.5-0.1v-30.1h0.7c4.2,0,6.2,5.2,6.3,5.4l6.4,28.5v35L154.6,344.8z
			 M149.3,304.7c2.6,1,5.8,4.5,6.8,8.4v0.2v30l3.8-0.2v-33.5l-6.4-28.1l0,0c0,0-1.4-3.7-4.2-4.3L149.3,304.7z"/>
		<path class="st3" d="M151.4,351.9c2.6-1.2,6.4-4.4,6.4-7.6V306l-1.8-3.2h65.3l-2.6,3.2v38.3c0,3.2,2.6,6.4,5.2,7.6H151.4z"/>
		<path d="M223.9,352.6h-72.5l-0.3-1.4c2.5-1.1,5.9-4.2,5.9-7v-38.1l-2.3-4.1h68l-3.3,4.1v38.1c0,3,2.5,5.9,4.8,7L223.9,352.6z
			 M154,351.2h67.5c-2.1-1.7-3.4-4.2-3.5-6.9v-38.6l1.8-2.2h-62.5l1.3,2.2v38.5C158.5,347,156.3,349.5,154,351.2z"/>
		<path class="st3" d="M210.7,351.9c-2.6-1.2-6.4-4.4-6.4-7.6v-36.5l5.4-5h-44.4l5.4,5v36.5c0,3.2-3.8,6.4-6.4,7.6H210.7z"/>
		<path d="M210.7,352.6h-46.3l-0.3-1.4c2.5-1.1,6-4.2,6-7v-36.1l-6.6-6.1h48.1l-6.5,6.1v36.1c0,2.8,3.5,5.8,6,7L210.7,352.6z
			 M167.1,351.2h41c-2.3-1.7-4.5-4.2-4.5-6.9v-36.8l4.3-4h-40.7l4.3,4v36.8C171.6,347,169.4,349.5,167.1,351.2L167.1,351.2z"/>
		<path class="st3" d="M204.5,351.9c-2.6-1.2-6.4-4.4-6.4-7.6v-33l3.6-5h-28.2l3.6,5v33c0,3.2-3.8,6.4-6.4,7.6H204.5z"/>
		<path d="M204.5,352.6h-33.8l-0.3-1.4c2.5-1.1,5.9-4.2,5.9-7v-32.7l-4.2-6h31l-4.2,6v32.7c0,2.8,3.5,5.8,6,7L204.5,352.6z
			 M173.3,351.2h28.6c-2.3-1.7-4.5-4.2-4.5-6.9v-33.2l2.9-4.1h-25.4l2.9,4.1v33.2C177.8,347,175.6,349.5,173.3,351.2L173.3,351.2z"
			/>
		<path class="st3" d="M180.8,306.3h13.5v45.6h-13.5V306.3z"/>
		<path d="M195,352.6h-14.9v-47H195V352.6z M181.5,351.2h12v-44.1h-12V351.2z"/>
		<path class="st3" d="M162.5,319.1h5.4v24.7h-5.4V319.1z M208.6,319.1h5.4v24.7h-5.4L208.6,319.1z M157.9,277.3h6.5v25.4h-6.5
			V277.3z M157.9,272.6h6.4v4.7h-6.4V272.6z"/>
		<path d="M214,344.5h-5.4l-0.7-0.7v-24.7l0.7-0.7h5.4l0.7,0.7v24.7L214,344.5z M209.3,343.1h3.9v-23.3h-3.9V343.1z M167.9,344.5
			h-5.4l-0.7-0.7v-24.7l0.7-0.7h5.4l0.7,0.7v24.7L167.9,344.5z M163.2,343.1h3.9v-23.3h-3.9V343.1z M164.4,303.4h-6.5l-0.7-0.7
			v-30.1l0.7-0.7h6.4l0.7,0.7v30.1L164.4,303.4z M158.6,302h5v-24h-5V302z M158.6,276.6h5v-3.3h-5V276.6z"/>
		<path class="st3" d="M211.2,282.8h9.2v19.6h-9.2V282.8z"/>
		<path d="M220.5,303.1h-9.2l-0.8-0.8v-19.6l0.8-0.8h9.2l0.8,0.8v19.6L220.5,303.1z M212,301.6h7.7v-18H212V301.6z"/>
		<path class="st3" d="M164.3,302.5v-43.4c1.9,0,2.1,6.4,6.4,6.4c2.2,0,2-2.6,0.7-4.8c-1.1-1.9-2.5-4.5-0.6-9.4
			c1.3,3.7,4.7,4.9,4,2.6c-1.1-4-4.2-4.7-1.9-11c0.8,5.2,4.2,5,3.4,2c-0.9-3.4-2.8-4.8-0.5-9.6c1.3,5.5,3.1,5.2,3.1,1.8
			c0-5-0.2-10.4,6.3-12.4c0,0,0.4-4.6,2.7-4.6s2.7,4.6,2.7,4.6c6.5,2,6.3,7.4,6.3,12.4c0,3.4,1.8,3.7,3.1-1.8
			c2.3,4.8,0.4,6.2-0.5,9.6c-0.8,3,2.5,3.3,3.3-2c2.3,6.3-0.8,6.9-1.9,11c-0.6,2.4,2.8,1.2,4.1-2.6c1.8,4.9,0.5,7.5-0.6,9.4
			c-1.2,2.1-1.5,4.8,0.7,4.8c4.2,0,4.5-6.4,6.4-6.4v43.4H164.3z M154.2,269.7v33.1h3.8v-33.2C156.8,268.9,155.3,268.9,154.2,269.7
			L154.2,269.7z"/>
		<path d="M158.6,303.5h-5.2v-34.2l0.3-0.2c1.3-1,3.1-1,4.5-0.2l0.4,0.2L158.6,303.5z M154.9,302.1h2.3v-32c-0.7-0.4-1.6-0.4-2.3,0
			V302.1z M212.3,303.2h-48.7v-44.8h0.7c1.2,0,1.8,1.2,2.5,2.6c0.9,1.8,1.8,3.7,3.9,3.7c0.6,0,0.7-0.2,0.8-0.4
			c0.4-0.6,0.1-2-0.7-3.4c-1-1.7-2.7-4.7-0.7-10l0.7-1.9l0.6,1.9c0.7,2.2,2.2,3.2,2.7,3.3c0-0.1,0-0.2-0.1-0.3c-0.3-1-0.7-2-1.3-2.9
			c-1.2-2-2.2-3.9-0.5-8.5l1-2.6l0.4,2.7c0.4,2.4,1.3,3.3,1.7,3.5c0.1,0,0.2,0,0.2,0s0.2-0.5,0-1.2c-0.2-0.7-0.5-1.4-0.7-2.1
			c-0.9-2.2-1.6-4.1,0.3-8l0.9-1.8l0.5,2c0.6,2.5,1.2,3.3,1.4,3.6c0.2-0.5,0.3-1.1,0.2-1.6v-0.4c0-4.9,0-10.4,6.4-12.6
			c0.2-1.4,0.9-4.8,3.4-4.8s3.2,3.4,3.4,4.8c6.4,2.2,6.4,7.7,6.4,12.6v0.4c0,0.6,0.1,1.1,0.2,1.6c0.2-0.3,0.8-1.1,1.4-3.6l0.5-2
			l0.9,1.8c1.9,3.9,1.2,5.8,0.3,8c-0.3,0.7-0.5,1.4-0.7,2.1c-0.2,0.7-0.1,1.1,0,1.2s0.1,0.1,0.2,0c0.4-0.1,1.3-1.1,1.7-3.5l0.4-2.7
			l1,2.6c1.7,4.6,0.6,6.5-0.5,8.5c-0.6,0.9-1,1.9-1.3,2.9c0,0.1,0,0.2,0,0.3c0.5-0.1,2-1.1,2.7-3.3l0.6-1.9l0.7,1.9
			c2,5.4,0.3,8.3-0.7,10c-0.8,1.3-1.1,2.7-0.7,3.4c0.1,0.1,0.2,0.4,0.8,0.4c2.1,0,3.1-2,3.9-3.7c0.7-1.4,1.3-2.6,2.5-2.6h0.7
			L212.3,303.2z M165,301.8h45.9v-41c-0.2,0.3-0.3,0.6-0.4,0.9c-0.9,1.9-2.2,4.5-5.2,4.5c-0.8,0-1.6-0.4-2-1.1
			c-0.8-1.3-0.1-3.3,0.7-4.8c1.4-2.1,1.8-4.7,1.1-7.1c-1.1,1.8-2.7,2.8-3.8,2.5c-0.6-0.2-1.1-0.8-0.8-2c0.3-1.1,0.8-2.2,1.5-3.3
			c1-1.4,1.4-3.2,1.1-4.9c-0.4,0.9-1.1,1.7-2,2.1c-0.6,0.2-1.2,0.1-1.6-0.3c-0.6-0.7-0.8-1.8-0.4-2.6c0.2-0.8,0.5-1.5,0.8-2.3
			c0.8-1.5,1-3.3,0.5-5c-0.7,1.9-1.5,2.8-2.4,2.7c-0.6-0.1-1.5-0.6-1.5-3.2v-0.4c0-4.9,0-9.5-5.8-11.3l-0.5-0.1v-0.5
			c-0.1-1.3-0.7-3.9-2-3.9s-1.9,3.1-2,3.9v0.5l-0.5,0.1c-5.8,1.8-5.8,6.4-5.8,11.3v0.4c0,2.6-0.9,3.1-1.5,3.2
			c-0.9,0.1-1.7-0.8-2.4-2.7c-0.5,1.7-0.3,3.5,0.5,5c0.3,0.7,0.6,1.5,0.8,2.3c0.3,0.9,0.2,1.9-0.4,2.6c-0.4,0.4-1.1,0.5-1.6,0.3
			c-0.9-0.4-1.6-1.2-2-2.1c-0.3,1.7,0.1,3.5,1.1,4.9c0.6,1,1.1,2.1,1.5,3.3c0.3,1.2-0.2,1.9-0.8,2c-1.1,0.3-2.7-0.6-3.8-2.5
			c-0.7,2.4-0.3,5,1.1,7.1c0.8,1.4,1.4,3.5,0.7,4.8c-0.4,0.7-1.2,1.1-2,1.1c-3,0-4.3-2.6-5.2-4.5c-0.1-0.3-0.3-0.6-0.4-0.9
			L165,301.8z"/>
		<path class="st3" d="M154.3,291.1c4.7,2.4,9.3,5.1,10.5,11.7h-10.5V291.1z M219,281.2v21.6h3v-21.7
			C221.1,280.7,219.9,280.7,219,281.2z"/>
		<path d="M222.8,303.6h-4.5v-22.7l0.3-0.2c1.2-0.7,2.6-0.7,3.8-0.1l0.4,0.2L222.8,303.6z M219.8,302.1h1.6v-20.4
			c-0.5-0.2-1.1-0.2-1.6,0V302.1z M165.6,303.5h-12V290l1,0.5c4.8,2.5,9.6,5.4,10.8,12.2L165.6,303.5z M155,302.1h8.9
			c-1.2-5.1-4.8-7.6-8.9-9.8V302.1z"/>
		<path class="st3" d="M222.1,291c-4.7,2.4-9.3,5.1-10.5,11.7h10.5V291z"/>
		<path d="M222.8,303.4h-12l0.1-0.9c1.2-6.8,6-9.7,10.8-12.2l1.1-0.5L222.8,303.4z M212.5,302h8.9v-9.8
			C217.3,294.3,213.7,296.9,212.5,302z"/>
		<path class="st3" d="M191.2,240.5l2.7-2.3v-2.9c-0.9,0.1-1.8,0.6-2.3,1.4c-0.6-1.9-2-3.5-3.9-4.4c-1.8,0.9-3.2,2.4-3.8,4.3
			c-0.5-0.8-1.3-1.3-2.3-1.3v2.9l2.7,2.3H191.2z"/>
		<path d="M191.5,241.2h-7.3l-3.2-2.7v-4.1l0.8,0.1c0.7,0,1.4,0.3,2,0.7c0.8-1.6,2.1-2.9,3.8-3.7l0.3-0.2l0.3,0.2
			c1.6,0.8,2.9,2.1,3.8,3.7c0.6-0.5,1.3-0.8,2-0.8l0.8-0.1v4.1L191.5,241.2z M184.7,239.8h6.3l2.3-1.9v-1.7c-0.4,0.2-0.7,0.5-1,0.9
			l-0.8,1.1l-0.4-1.3c-0.5-1.6-1.7-3-3.2-3.8c-1.5,0.8-2.6,2.1-3.2,3.7l-0.4,1.3l-0.8-1.1c-0.2-0.4-0.6-0.7-1-0.9v1.7L184.7,239.8z"
			/>
		<path class="st3" d="M192.7,247.8l1.3-2.7v-3.8c-0.9,0.1-1.8,0.6-2.3,1.4c-0.6-1.9-2-3.6-3.9-4.5c-1.8,0.9-3.2,2.5-3.8,4.4
			c-0.5-0.8-1.3-1.3-2.3-1.4v3.8l1.3,2.7L192.7,247.8z"/>
		<path d="M182.5,248.6l-1.5-3.5v-4.6l0.8,0.1c0.7,0,1.4,0.3,2,0.7c0.8-1.6,2.1-2.9,3.8-3.7l0.3-0.2l0.3,0.2
			c1.6,0.8,2.9,2.1,3.8,3.8c0.6-0.5,1.3-0.8,2-0.8l0.8-0.1l-0.1,4.9l-1.5,3.2L182.5,248.6z M182.4,244.9l1,2.2h8.8l1-2.2v-2.7
			c-0.4,0.2-0.7,0.6-1,0.9l-0.8,1.1l-0.4-1.3c-0.5-1.6-1.7-3-3.2-3.9c-1.5,0.8-2.6,2.2-3.2,3.8l-0.4,1.3l-0.8-1.1
			c-0.2-0.4-0.6-0.7-1-0.9L182.4,244.9z"/>
		<path class="st3" d="M192.9,257.8l4-4.9V248c-1.5,0.2-2.3,0.8-3.4,2.4c-0.9-3.3-3-4.1-5.7-5.7c-2.7,1.6-4.8,2.2-5.7,5.6
			c-1.1-1.7-1.9-2.1-3.4-2.3v4.9l4,4.9L192.9,257.8z"/>
		<path d="M193.2,258.5h-10.8l-4.4-5.4v-5.9l0.8,0.1c1.2,0.1,2.3,0.6,3.1,1.5c1-2.1,2.6-3,4.4-4c0.4-0.2,0.8-0.4,1.2-0.7l0.4-0.2
			l0.4,0.2l1,0.6c1.9,1.1,3.5,2,4.5,4.2c0.8-0.9,1.9-1.5,3.1-1.6l0.8-0.1v5.9L193.2,258.5z M183.1,257.1h9.4l3.7-4.5v-3.7
			c-0.9,0.4-1.6,1.1-2.1,1.9l-0.9,1.3l-0.4-1.5c-0.7-2.6-2.2-3.4-4.3-4.6l-0.7-0.4l-0.9,0.5c-2.1,1.1-3.4,1.9-4.1,4.4l-0.4,1.5
			l-0.9-1.3c-0.4-0.9-1.2-1.5-2.1-1.8v3.8L183.1,257.1z"/>
		<path class="st3" d="M194,267.5c0,0,4.7-4.1,5-6.4V256c-2,0.1-3.8,1.1-4.9,2.8c-1.1-4.3-2.9-5.5-6.3-7.6c-3.4,2.1-5.2,3.3-6.3,7.6
			c-1.1-1.7-2.9-2.8-4.9-2.8v5.2c0.6,2.3,5,6.4,5,6.4L194,267.5z"/>
		<path d="M194.3,268.3h-13l-0.2-0.2c-0.5-0.4-4.6-4.3-5.2-6.7v-0.2v-6l0.8,0.1c1.7,0.1,3.3,0.8,4.5,2c1.2-3.4,3.1-4.7,6.2-6.7
			l0.4-0.2l0.4,0.2c3.1,2,5,3.2,6.2,6.7c1.2-1.2,2.8-1.9,4.5-2l0.8-0.1v6c-0.3,2.5-4.7,6.5-5.2,6.9L194.3,268.3z M181.9,266.8h11.9
			c1.8-1.6,4.4-4.4,4.6-5.7v-4.3c-1.5,0.2-2.8,1.1-3.6,2.4l-0.9,1.4l-0.4-1.6c-1-3.8-2.5-5-5.6-6.9c-3.1,1.9-4.6,3.1-5.6,6.9
			l-0.4,1.6l-0.9-1.4c-0.8-1.3-2.1-2.2-3.6-2.4v4.3C177.8,262.7,180.6,265.6,181.9,266.8z"/>
		<path class="st3" d="M196.1,285.6c0,0,6.4-7.1,6.6-9.9v-8.1c-2.4,0.3-4.7,2-6.5,5.3c-1.5-6.7-3.9-11.4-8.4-14.6
			c-4.5,3.2-6.8,7.9-8.4,14.6c-1.8-3.3-4.1-5-6.5-5.3v8.1c0.5,2.8,6.6,9.9,6.6,9.9H196.1z"/>
		<path d="M196.4,286.3h-17.1L179,286c-0.6-0.8-6.3-7.4-6.8-10.3v-9l0.8,0.1c2.5,0.5,4.8,2,6.1,4.2c1.7-6.4,4.2-10.4,8.2-13.4
			l0.4-0.3l0.4,0.3c4,2.9,6.6,7,8.2,13.4c1.3-2.2,3.6-3.7,6.1-4.2l0.8-0.1v8.9c-0.2,3-6.1,9.6-6.8,10.4L196.4,286.3z M179.9,284.9
			h15.8c2.4-2.7,6.1-7.5,6.2-9.2v-7.2c-2,0.6-3.8,2.2-5.1,4.8l-0.9,1.7l-0.4-1.9c-1.5-6.8-3.8-11-7.6-13.9c-3.8,3-6.1,7.1-7.6,13.9
			l-0.4,1.9l-0.9-1.7c-1.4-2.6-3.1-4.2-5.1-4.8v7.2C174,277.6,178.1,282.7,179.9,284.9z"/>
		<path class="st3" d="M196.1,296.2c0,0,5.5-5.6,6.6-8v-8.1c-2.4,0.3-4.7,2-6.5,5.3c-1.5-6.7-3.9-10.5-8.4-13.8
			c-4.5,3.3-6.8,7.1-8.4,13.8c-1.8-3.3-4.1-5-6.5-5.3v8.1c1.4,2.4,6.6,8,6.6,8H196.1z"/>
		<path d="M196.4,297h-17.1l-0.2-0.2c-0.2-0.2-5.3-5.7-6.7-8.2l-0.1-0.2v-9.1l0.8,0.1c2.5,0.5,4.8,2,6.1,4.2
			c1.6-5.8,3.9-9.4,8.2-12.5l0.4-0.3l0.4,0.3c4.3,3.1,6.7,6.7,8.2,12.5c1.3-2.2,3.6-3.7,6.1-4.2l0.8-0.1l-0.1,9.2
			c-1.1,2.5-6.5,8-6.7,8.3L196.4,297z M179.9,295.6h15.9c1.6-1.6,5.3-5.6,6.2-7.5V281c-2,0.6-3.7,2.2-5.1,4.8l-0.9,1.7l-0.4-1.9
			c-1.4-6.2-3.6-10-7.6-13.1c-4.1,3.1-6.2,6.8-7.6,13.1l-0.4,1.9l-0.9-1.7c-1.4-2.6-3.1-4.2-5.1-4.8v7
			C175.6,290.6,177.7,293.2,179.9,295.6L179.9,295.6z"/>
		<path class="st3" d="M198.3,302.4c-1.6-7-3-12.2-10.7-17.5c-7.8,5.3-9.1,10.5-10.7,17.5H198.3z"/>
		<path d="M199.2,303.2h-23.3l0.2-0.9c1.5-6.6,2.8-12.3,11-17.9l0.4-0.3l0.4,0.3c8.2,5.6,9.5,11.3,11,17.9L199.2,303.2z
			 M177.7,301.7h19.7c-1.6-6.7-3.1-11.2-9.8-15.9C180.8,290.5,179.3,295,177.7,301.7L177.7,301.7z"/>
		<path class="st3" d="M202.3,306.3v-10.1c-3.5,1.4-6.7,3.4-7.9,5.7c-1.3-5.6-3.8-8.1-7-11.5c-3.1,3.4-5.2,5.9-6.6,11.5
			c-1.2-2.3-4.4-4.3-7.9-5.7v10.1L202.3,306.3z"/>
		<path d="M203,307.1h-30.8v-11.9l1,0.4c2.8,1,5.3,2.6,7.3,4.7c1.3-4.6,3.3-7.1,6.3-10.3l0.5-0.6l1,1.1c2.6,2.8,4.9,5.3,6.2,9.8
			c2-2.1,4.5-3.7,7.3-4.7l1-0.4L203,307.1z M173.7,305.6h27.9v-8.4c-3.2,1.4-5.6,3.2-6.5,5l-0.9,1.7l-0.4-1.9
			c-1.2-5.1-3.4-7.5-6.3-10.6c-2.8,3.1-4.7,5.5-5.9,10.6l-0.4,1.9l-0.9-1.7c-0.9-1.7-3.3-3.5-6.5-5L173.7,305.6z"/>
		<path class="st3" d="M444.7,343.9v-30.7c1-3.9,4.3-7.4,6.8-8v-27l-5.6,3l-6.4,28.2v34.4H444.7z"/>
		<path d="M445.4,344.7h-6.6v-35.3l6.5-28.5l7-3.8v28.7l-0.5,0.1c-2.2,0.6-5.3,3.8-6.3,7.5L445.4,344.7z M440.2,343.2h3.8v-30.1
			c1-3.9,4.2-7.4,6.8-8.4v-25.3l-4.3,2.3l-6.3,27.8L440.2,343.2z"/>
		<path class="st3" d="M444.7,344.1v-30.8c1-3.9,4.3-7.4,6.8-8v-28.9c-3.8,0-5.6,4.9-5.6,4.9l-6.4,28.2v34.3L444.7,344.1z"/>
		<path d="M445.4,344.8l-6.6-0.3v-35.2l6.4-28.2c0.1-0.3,2.1-5.5,6.3-5.5h0.7v30.1l-0.5,0.1c-2.2,0.6-5.3,3.8-6.3,7.5L445.4,344.8z
			 M440.2,343.1l3.8,0.2v-30.2c1-3.9,4.2-7.4,6.8-8.4v-27.6c-2.8,0.6-4.2,4.3-4.2,4.4l-6.4,28L440.2,343.1z"/>
		<path class="st3" d="M448.7,351.9c-2.6-1.2-6.4-4.4-6.4-7.6V306l1.8-3.2h-65.3l2.5,3.2v38.3c0,3.2-2.6,6.4-5.2,7.6H448.7z"/>
		<path d="M448.7,352.6h-72.5l-0.3-1.4c2.3-1,4.8-4,4.8-7v-38.1l-3.3-4.1h68l-2.3,4.1v38.1c0,2.8,3.5,5.8,6,7L448.7,352.6z
			 M378.5,351.2H446c-2.3-1.7-4.5-4.2-4.5-6.9v-38.5l1.3-2.2h-62.5l1.8,2.2v38.6C381.9,347,380.6,349.5,378.5,351.2L378.5,351.2z"/>
		<path class="st3" d="M389.3,351.9c2.6-1.2,6.4-4.4,6.4-7.6v-36.5l-5.4-5h44.4l-5.4,5v36.5c0,3.2,3.8,6.4,6.4,7.6H389.3z"/>
		<path d="M435.6,352.6h-46.3l-0.3-1.4c2.5-1.1,6-4.2,6-7v-36.1l-6.5-6.1h48l-6.5,6.1v36.1c0,2.8,3.5,5.8,6,7L435.6,352.6z
			 M391.9,351.2h41c-2.3-1.7-4.5-4.2-4.5-6.9v-36.8l4.3-4h-40.7l4.3,4v36.8C396.4,347,394.2,349.5,391.9,351.2L391.9,351.2z"/>
		<path class="st3" d="M395.5,351.9c2.6-1.2,6.4-4.4,6.4-7.6v-33l-3.5-5h28.2l-3.6,5v33c0,3.2,3.8,6.4,6.4,7.6H395.5z"/>
		<path d="M429.4,352.6h-33.8l-0.3-1.4c2.5-1.1,6-4.2,6-7v-32.7l-4.2-6h31l-4.2,6v32.7c0,2.8,3.5,5.8,6,7L429.4,352.6z M398.2,351.2
			h28.6c-2.3-1.7-4.5-4.2-4.5-6.9v-33.2l2.9-4.1h-25.4l2.9,4.1v33.2C402.6,347,400.4,349.5,398.2,351.2L398.2,351.2z"/>
		<path class="st3" d="M419.2,306.3h-13.5v45.6h13.5V306.3z"/>
		<path d="M419.9,352.6H405v-47h14.9V352.6z M406.4,351.2h12v-44.1h-12V351.2z"/>
		<path class="st3" d="M437.5,319.1h-5.4v24.7h5.4V319.1z M391.4,319.1H386v24.7h5.4L391.4,319.1z M442.1,277.3h-6.5v25.4h6.5V277.3
			z M442.1,272.6h-6.4v4.7h6.4V272.6z"/>
		<path d="M437.5,344.5h-5.4l-0.7-0.7v-24.7l0.7-0.7h5.4l0.7,0.7v24.7L437.5,344.5z M432.9,343.1h3.9v-23.3h-3.9V343.1z
			 M391.4,344.5H386l-0.7-0.7v-24.7l0.7-0.7h5.4l0.7,0.7v24.7L391.4,344.5z M386.7,343.1h3.9v-23.3h-3.9V343.1z M442.1,303.4h-6.5
			l-0.7-0.7v-30.1l0.7-0.7h6.4l0.7,0.7v30.1L442.1,303.4z M436.4,302h5v-24h-5V302z M436.4,276.6h5v-3.3h-5V276.6z"/>
		<path class="st3" d="M388.8,282.8h-9.2v19.6h9.2V282.8z"/>
		<path d="M388.8,303.1h-9.2l-0.8-0.8v-19.6l0.8-0.8h9.2l0.8,0.8v19.6L388.8,303.1z M380.4,301.6h7.6v-18h-7.7L380.4,301.6z"/>
		<path class="st3" d="M435.7,302.5v-43.4c-1.9,0-2.1,6.4-6.4,6.4c-2.2,0-2-2.6-0.7-4.8c1.1-1.9,2.5-4.5,0.6-9.4
			c-1.3,3.7-4.7,4.9-4,2.6c1.1-4,4.2-4.7,1.9-11c-0.8,5.2-4.2,5-3.4,2c0.9-3.4,2.8-4.8,0.5-9.6c-1.3,5.5-3.1,5.2-3.1,1.8
			c0-5,0.2-10.4-6.3-12.4c0,0-0.4-4.6-2.7-4.6s-2.7,4.6-2.7,4.6c-6.5,2-6.3,7.4-6.3,12.4c0,3.4-1.8,3.7-3.1-1.8
			c-2.3,4.8-0.5,6.2,0.5,9.6c0.8,3-2.5,3.3-3.4-2c-2.3,6.3,0.8,6.9,1.9,11c0.6,2.4-2.8,1.2-4-2.6c-1.8,4.9-0.5,7.5,0.6,9.4
			c1.2,2.1,1.5,4.8-0.7,4.8c-4.2,0-4.5-6.4-6.4-6.4v43.4H435.7z M445.9,269.7v33.1h-3.8v-33.2C443.3,268.9,444.8,268.9,445.9,269.7
			L445.9,269.7z"/>
		<path d="M446.6,303.5h-5.2v-34.4l0.4-0.2c1.4-0.9,3.2-0.8,4.5,0.2l0.3,0.2V303.5z M442.8,302.1h2.3v-32c-0.7-0.4-1.6-0.4-2.3,0
			V302.1z M387.7,303.2v-44.8h0.7c1.2,0,1.8,1.2,2.5,2.6c0.8,1.8,1.8,3.7,3.9,3.7c0.6,0,0.7-0.2,0.8-0.4c0.4-0.6,0.1-2-0.7-3.4
			c-1-1.7-2.7-4.7-0.7-10l0.7-1.9l0.6,1.9c0.7,2.2,2.2,3.2,2.7,3.3c0-0.1,0-0.2,0-0.3c-0.3-1-0.8-2-1.3-2.9c-1.1-2-2.2-3.9-0.5-8.5
			l1-2.6l0.4,2.7c0.4,2.4,1.3,3.3,1.7,3.5c0.1,0,0.2,0,0.2,0s0.2-0.5,0-1.2c-0.2-0.7-0.4-1.4-0.7-2.1c-0.9-2.2-1.6-4.1,0.3-8
			l0.9-1.8l0.5,2c0.6,2.5,1.2,3.3,1.4,3.6c0.2-0.5,0.3-1.1,0.2-1.6v-0.4c0-4.9,0-10.4,6.4-12.6c0.2-1.4,0.9-4.8,3.4-4.8
			s3.2,3.4,3.4,4.8c6.4,2.2,6.4,7.7,6.4,12.6v0.4c0,0.6,0.1,1.1,0.2,1.6c0.2-0.3,0.8-1.1,1.4-3.6l0.5-2l0.9,1.8
			c1.9,3.9,1.2,5.8,0.3,8c-0.3,0.7-0.5,1.4-0.7,2.1c-0.2,0.7-0.1,1.1,0,1.2s0,0,0.2,0c0.4-0.1,1.3-1.1,1.7-3.5l0.4-2.7l1,2.6
			c1.7,4.6,0.6,6.5-0.5,8.5c-0.6,0.9-1,1.9-1.3,2.9c0,0.1,0,0.2,0,0.3c0.5-0.1,2-1.1,2.7-3.3l0.6-1.9l0.7,1.9c1.9,5,0.6,7.8-0.7,10
			c-0.8,1.3-1,2.7-0.7,3.4c0.1,0.1,0.2,0.4,0.8,0.4c2.1,0,3.1-2,3.9-3.7c0.7-1.4,1.3-2.6,2.5-2.6h0.7v44.9L387.7,303.2L387.7,303.2z
			 M389.2,260.7v41H435v-41c-0.2,0.3-0.3,0.6-0.4,0.9c-0.9,1.9-2.2,4.5-5.2,4.5c-0.8,0-1.6-0.4-2-1.1c-0.8-1.3-0.2-3.4,0.7-4.8
			c1.4-2.1,1.8-4.7,1.1-7.1c-1.1,1.8-2.7,2.8-3.8,2.5c-0.6-0.2-1.1-0.8-0.8-2c0.3-1.2,0.8-2.2,1.5-3.3c1-1.4,1.4-3.2,1.1-4.9
			c-0.3,0.9-1,1.7-2,2.1c-0.6,0.2-1.2,0.1-1.6-0.3c-0.6-0.7-0.8-1.8-0.5-2.6c0.2-0.8,0.5-1.5,0.8-2.3c0.8-1.5,1-3.3,0.5-5
			c-0.7,1.9-1.5,2.8-2.4,2.7c-0.6-0.1-1.5-0.6-1.5-3.2v-0.4c0-4.9,0-9.5-5.8-11.3l-0.5-0.1v-0.5c-0.1-1.3-0.7-3.9-2-3.9
			s-1.9,2.7-2,3.9v0.5l-0.5,0.1c-5.8,1.8-5.8,6.4-5.8,11.3v0.5c0,2.6-0.9,3.1-1.5,3.2c-0.9,0.1-1.7-0.8-2.4-2.7
			c-0.5,1.7-0.3,3.5,0.5,5c0.3,0.7,0.6,1.5,0.8,2.3c0.4,0.9,0.2,1.9-0.4,2.6c-0.4,0.4-1.1,0.5-1.6,0.3c-0.9-0.4-1.6-1.2-2-2.1
			c-0.3,1.7,0.1,3.5,1.1,4.9c0.6,1,1.1,2.1,1.5,3.3c0.3,1.2-0.2,1.9-0.8,2c-1,0.3-2.7-0.6-3.8-2.5c-0.7,2.4-0.3,5,1.1,7.1
			c0.8,1.5,1.5,3.5,0.7,4.8c-0.4,0.7-1.2,1.1-2,1.1c-3,0-4.3-2.6-5.2-4.5C389.5,261.4,389.3,261,389.2,260.7L389.2,260.7z"/>
		<path class="st3" d="M445.8,291.1c-4.7,2.4-9.3,5.1-10.5,11.7h10.5V291.1z M381,281.2v21.6h-3v-21.7
			C378.9,280.7,380.1,280.7,381,281.2z"/>
		<path d="M381.7,303.6h-4.5v-22.8l0.4-0.2c1.2-0.6,2.6-0.6,3.8,0.1l0.3,0.2V303.6z M378.7,302.1h1.6v-20.5c-0.5-0.2-1.1-0.2-1.6,0
			V302.1z M446.5,303.5h-12l0.1-0.8c1.2-6.8,6-9.7,10.8-12.2l1-0.5L446.5,303.5z M436.2,302.1h8.9v-9.8
			C441,294.5,437.4,297,436.2,302.1z"/>
		<path class="st3" d="M378,291c4.7,2.4,9.3,5.1,10.5,11.7H378V291z"/>
		<path d="M389.3,303.4h-12v-13.6l1,0.5c4.8,2.5,9.6,5.4,10.8,12.2L389.3,303.4z M378.7,302h8.9c-1.2-5.1-4.8-7.6-8.9-9.8V302z"/>
		<path class="st3" d="M408.8,240.5l-2.7-2.3v-2.9c0.9,0.1,1.8,0.6,2.3,1.4c0.6-1.9,2-3.5,3.9-4.4c1.8,0.9,3.2,2.4,3.8,4.3
			c0.5-0.8,1.3-1.3,2.3-1.3v2.9l-2.7,2.3H408.8z"/>
		<path d="M415.9,241.2h-7.3l-3.2-2.7v-4.1l0.8,0.1c0.7,0,1.4,0.3,2,0.8c0.8-1.6,2.1-2.9,3.8-3.7l0.3-0.2l0.3,0.2
			c1.6,0.8,2.9,2.1,3.8,3.7c0.6-0.5,1.3-0.7,2-0.7l0.8-0.1v4.1L415.9,241.2z M409.1,239.8h6.3l2.3-1.9v-1.7c-0.4,0.2-0.8,0.5-1,0.9
			l-0.8,1.1l-0.4-1.3c-0.5-1.6-1.7-2.9-3.1-3.7c-1.5,0.8-2.6,2.2-3.2,3.8l-0.4,1.3l-0.8-1.1c-0.3-0.4-0.6-0.7-1-0.9v1.7L409.1,239.8
			z"/>
		<path class="st3" d="M407.4,247.8l-1.3-2.7v-3.8c0.9,0.1,1.8,0.6,2.3,1.4c0.6-1.9,2-3.6,3.9-4.5c1.8,0.9,3.2,2.5,3.8,4.4
			c0.5-0.8,1.3-1.3,2.3-1.4v3.8l-1.3,2.7L407.4,247.8z"/>
		<path d="M417.5,248.6h-10.6l-1.5-3.5v-4.6l0.8,0.1c0.7,0,1.4,0.3,2,0.8c0.8-1.6,2.1-2.9,3.8-3.8l0.3-0.2l0.3,0.2
			c1.6,0.8,2.9,2.1,3.8,3.7c0.6-0.5,1.3-0.7,2-0.7l0.8-0.1l-0.1,4.9L417.5,248.6z M407.8,247.1h8.8l1-2.2v-2.8
			c-0.4,0.2-0.8,0.5-1,0.9l-0.8,1.1l-0.4-1.3c-0.5-1.6-1.7-3-3.2-3.8c-1.5,0.8-2.6,2.2-3.2,3.9l-0.4,1.3l-0.8-1.1
			c-0.3-0.4-0.6-0.7-1-0.9v2.7L407.8,247.1z"/>
		<path class="st3" d="M407.2,257.8l-4-4.9V248c1.5,0.2,2.3,0.8,3.4,2.4c0.9-3.3,3-4.1,5.7-5.7c2.7,1.6,4.8,2.2,5.7,5.6
			c1.1-1.7,1.9-2.1,3.4-2.3v4.9l-4,4.9L407.2,257.8z"/>
		<path d="M417.6,258.5h-10.8l-4.4-5.4v-5.9l0.8,0.1c1.2,0.1,2.3,0.7,3.1,1.6c1-2.2,2.7-3.1,4.5-4.2l1-0.6l0.4-0.2l0.4,0.2
			c0.4,0.2,0.8,0.5,1.2,0.7c1.8,1,3.4,1.9,4.4,4c0.8-0.9,1.9-1.5,3.1-1.5l0.8-0.1v5.9L417.6,258.5z M407.5,257.1h9.4l3.7-4.5v-3.8
			c-0.9,0.3-1.6,1-2.1,1.8l-0.9,1.3l-0.4-1.5c-0.7-2.5-2.1-3.3-4.1-4.4l-0.9-0.5l-0.7,0.4c-2.2,1.2-3.6,2-4.3,4.6l-0.4,1.5l-0.9-1.3
			c-0.4-0.9-1.2-1.5-2-1.9v3.7L407.5,257.1z"/>
		<path class="st3" d="M406,267.5c0,0-4.7-4.1-5-6.4V256c2,0.1,3.9,1.1,4.9,2.8c1.1-4.3,2.9-5.5,6.3-7.6c3.4,2.1,5.2,3.3,6.3,7.6
			c1.1-1.7,2.9-2.8,4.9-2.8v5.2c-0.6,2.3-5,6.4-5,6.4L406,267.5z"/>
		<path d="M405.7,268.3l-0.2-0.2c-0.5-0.4-4.9-4.4-5.2-6.8v-6.1l0.8,0.1c1.7,0.1,3.3,0.8,4.5,2c1.2-3.4,3.1-4.7,6.2-6.7l0.4-0.2
			l0.4,0.2c3.1,2,5,3.2,6.2,6.7c1.2-1.2,2.8-1.9,4.5-2l0.8-0.1v6.2c-0.6,2.4-4.7,6.3-5.2,6.7l-0.2,0.2H405.7z M401.7,256.8v4.4
			c0.2,1.3,2.8,4.1,4.5,5.6h11.9c1.3-1.2,4.1-4.1,4.6-5.8v-4.3c-1.5,0.2-2.8,1.1-3.6,2.4l-0.9,1.4l-0.4-1.6c-1-3.8-2.5-5-5.6-6.9
			c-3.1,1.9-4.6,3.1-5.6,6.9l-0.4,1.6l-0.9-1.4C404.5,257.9,403.2,257,401.7,256.8L401.7,256.8z"/>
		<path class="st3" d="M404,285.6c0,0-6.5-7.1-6.6-9.9v-8.1c2.4,0.3,4.7,2,6.5,5.3c1.5-6.7,3.9-11.4,8.4-14.6
			c4.5,3.2,6.8,7.9,8.4,14.6c1.8-3.3,4.1-5,6.5-5.3v8.1c-0.5,2.8-6.6,9.9-6.6,9.9H404z"/>
		<path d="M403.7,286.3l-0.2-0.2c-0.7-0.8-6.6-7.4-6.8-10.4v-9l0.8,0.1c2.5,0.5,4.8,2,6.1,4.2c1.7-6.4,4.2-10.4,8.2-13.4l0.4-0.3
			l0.4,0.3c4,2.9,6.5,7,8.2,13.4c1.3-2.2,3.6-3.7,6.1-4.2l0.8-0.1v8.9c-0.5,3-6.1,9.6-6.8,10.4l-0.2,0.2L403.7,286.3z M398.1,268.4
			v7.2c0.1,1.8,3.8,6.5,6.2,9.2h15.8c1.8-2.1,5.9-7.3,6.2-9.3v-7.1c-2,0.6-3.8,2.2-5.1,4.8l-0.9,1.7l-0.4-1.9
			c-1.5-6.8-3.8-11-7.6-13.9c-3.8,3-6.1,7.1-7.6,13.9l-0.4,1.9l-0.9-1.7C401.9,270.6,400.1,269,398.1,268.4z"/>
		<path class="st3" d="M404,296.2c0,0-5.5-5.6-6.6-8v-8.1c2.4,0.3,4.7,2,6.5,5.3c1.5-6.7,3.9-10.5,8.4-13.8
			c4.5,3.3,6.8,7.1,8.4,13.8c1.8-3.3,4.1-5,6.5-5.3v8.1c-1.4,2.4-6.6,8-6.6,8H404z"/>
		<path d="M403.7,297l-0.2-0.2c-0.2-0.2-5.6-5.7-6.7-8.3l-0.1-0.3v-8.9l0.8,0.1c2.5,0.5,4.8,2,6.1,4.2c1.6-5.8,4-9.4,8.2-12.5
			l0.4-0.3l0.4,0.3c4.3,3.1,6.7,6.7,8.2,12.5c1.3-2.2,3.6-3.7,6.1-4.2l0.8-0.1v9.1l-0.1,0.2c-1.4,2.5-6.5,8-6.7,8.2l-0.2,0.2
			L403.7,297z M398.1,288c0.9,1.9,4.6,5.8,6.2,7.5h15.9c2.2-2.4,4.3-4.9,6.2-7.5v-7c-2,0.6-3.8,2.2-5.1,4.8l-0.9,1.7l-0.4-1.9
			c-1.4-6.2-3.6-10-7.6-13.1c-4.1,3.1-6.2,6.8-7.6,13.1l-0.4,1.9l-0.9-1.7c-1.4-2.6-3.1-4.2-5.1-4.8L398.1,288z"/>
		<path class="st3" d="M401.8,302.4c1.6-7,3-12.2,10.8-17.5c7.8,5.3,9.1,10.5,10.7,17.5H401.8z"/>
		<path d="M424.2,303.2h-23.3l0.2-0.9c1.5-6.6,2.8-12.3,11-17.9l0.4-0.3l0.4,0.3c8.2,5.6,9.5,11.3,11,17.9L424.2,303.2z
			 M402.7,301.7h19.7c-1.6-6.7-3.1-11.2-9.8-15.9C405.8,290.5,404.2,295,402.7,301.7z"/>
		<path class="st3" d="M397.8,306.3v-10.1c3.5,1.4,6.7,3.4,7.9,5.7c1.3-5.6,3.8-8.1,7-11.5c3.1,3.4,5.2,5.9,6.6,11.5
			c1.2-2.3,4.4-4.3,7.9-5.7v10.1L397.8,306.3z"/>
		<path d="M427.8,307.1H397v-11.9l1,0.4c2.8,1,5.3,2.6,7.3,4.7c1.4-4.5,3.6-7,6.2-9.8l1-1.1l0.5,0.6c3,3.2,5,5.7,6.3,10.3
			c2-2.1,4.5-3.7,7.3-4.7l1-0.4L427.8,307.1z M398.5,305.6h27.9v-8.4c-3.2,1.4-5.6,3.2-6.5,5l-0.9,1.7l-0.4-1.9
			c-1.2-5.1-3-7.5-5.9-10.6c-2.9,3.1-5.1,5.5-6.3,10.6l-0.4,1.9l-0.9-1.7c-0.9-1.7-3.3-3.5-6.5-5L398.5,305.6z"/>
		<path class="st3" d="M141.1,351.5v9.3h317.8v-9.3H141.1z M135.3,360.9v12.1h329.3v-12.1H135.3z M464.7,372.9L135.3,373l-9.6-0.1
			v15.9h348.6v-15.9L464.7,372.9z M116,389v18.8h368V389H116z M484,407.8L484,407.8H116l0,0h-9.7v18.7h387.4v-18.8L484,407.8z"/>
		<path d="M494.4,427.2H105.6V407h9.7v-18.8h9.7v-16l9.6,0.1v-12.2h5.8v-9.3h319.3v9.3h5.8v12.1h9.6v16h9.7V407h9.7L494.4,427.2z
			 M107,425.8h386v-17.3H107V425.8z M116.7,407h366.6v-17.3H116.7L116.7,407z M126.4,388.1h347.2v-14.5h-8.9l-329.3,0.1l-8.9-0.1
			L126.4,388.1z M136,372.2h328v-10.6h-328L136,372.2z M141.8,360.1h316.4v-7.8H141.8L141.8,360.1z"/>
		<path class="st3" d="M175.6,351.6h24v74.9h-24V351.6z"/>
		<path d="M200.4,427.2h-25.6v-76.5h25.6V427.2z M176.4,425.7h22.4v-73.3h-22.4L176.4,425.7z"/>
		<path class="st3" d="M180.9,351.6h13.4v74.9h-13.4V351.6z"/>
		<path d="M195.1,427.2h-14.9v-76.5h14.9V427.2z M181.7,425.7h11.8v-73.3h-11.8V425.7z"/>
		<path class="st3" d="M287.6,351.6h24v74.9h-24V351.6z"/>
		<path d="M312.4,427.2h-25.6v-76.5h25.6L312.4,427.2z M288.4,425.7h22.4v-73.3h-22.5L288.4,425.7z"/>
		<path class="st3" d="M293.1,351.6h13.4v74.9h-13.4V351.6z"/>
		<path d="M307.2,427.2h-14.9v-76.5h14.9V427.2z M293.8,425.7h11.8v-73.3h-11.8V425.7z"/>
		<path class="st3" d="M400.2,351.6h24v74.9h-24V351.6z"/>
		<path d="M425,427.2h-25.5v-76.5H425V427.2z M401,425.7h22.4v-73.3H401V425.7z"/>
		<path class="st3" d="M405.6,351.6h13.4v74.9h-13.4V351.6z"/>
		<path d="M419.7,427.2h-14.9v-76.5h14.9V427.2z M406.3,425.7h11.8v-73.3h-11.8V425.7z"/>
		<path d="M306,417.8h-12.9v-1.4H306V417.8z M419.2,417.8h-13.8v-1.4h13.9L419.2,417.8z M194.5,417.8h-13.8v-1.4h13.9L194.5,417.8z
			 M306,408.4h-12.9V407H306V408.4z M419.2,408.4h-13.8V407h13.9L419.2,408.4z M194.5,408.4h-13.8V407h13.9L194.5,408.4z M306,399
			h-12.9v-1.4H306V399z M419.2,399h-13.8v-1.4h13.9L419.2,399z M194.5,399h-13.8v-1.4h13.9L194.5,399z M419.2,389.6h-13.8v-1.4h13.9
			L419.2,389.6z M306,389.6h-12.9v-1.4H306V389.6z M194.5,389.6h-13.8v-1.4h13.9L194.5,389.6z M419.2,380.2h-13.8v-1.4h13.9
			L419.2,380.2z M194.5,380.2h-13.8v-1.4h13.9L194.5,380.2z M306,380.2h-12.9v-1.4H306L306,380.2z M419.2,370.9h-13.8v-1.4h13.9
			L419.2,370.9z M194.5,370.9h-13.8v-1.4h13.9L194.5,370.9z M306,370.9h-12.9v-1.4H306L306,370.9z M419.2,361.5h-13.8v-1.4h13.9
			L419.2,361.5z M194.5,361.5h-13.8v-1.4h13.9L194.5,361.5z M306,361.5h-12.9v-1.4H306L306,361.5z M445,344.7H155.4v-1.4H445V344.7z
			"/>
	</g>
</g>
</svg>
